<svg version="1.1" id="Layer_1" xmlns="http://www.w3.org/2000/svg" xmlns:xlink="http://www.w3.org/1999/xlink" x="0px" y="0px"
	 width="100%" viewBox="0 0 282 280" enable-background="new 0 0 282 280" xml:space="preserve">
<path fill="#FFFFFF" opacity="1.000000" stroke="none" 
	d="
M186.000000,281.000000 
	C124.000008,281.000000 62.500015,281.000000 1.000016,281.000000 
	C1.000011,187.666687 1.000011,94.333374 1.000005,1.000041 
	C94.999969,1.000028 188.999939,1.000028 282.999939,1.000014 
	C282.999939,94.333290 282.999939,187.666580 282.999969,280.999939 
	C250.833328,281.000000 218.666672,281.000000 186.000000,281.000000 
M75.214348,81.067757 
	C73.754890,82.843910 72.212982,84.559196 70.849426,86.406151 
	C62.383350,97.873573 58.053482,111.314537 53.366608,124.482285 
	C51.449608,129.868088 50.433056,136.120712 51.058491,141.751083 
	C52.348026,153.359894 54.858845,164.847214 57.164055,176.324890 
	C59.274719,186.833939 65.426582,194.797745 74.044830,201.788528 
	C82.752296,211.053329 93.064667,218.080963 104.286942,223.960098 
	C111.562325,227.771530 118.716400,231.052582 127.325760,229.131638 
	C129.551102,228.635086 132.155441,229.765167 134.572998,230.216049 
	C141.311920,231.472794 148.150299,235.242004 154.848755,231.278320 
	C158.852814,228.908997 162.676254,228.947968 166.970123,228.835648 
	C180.591064,228.479279 192.602264,223.609436 203.457886,215.299866 
	C215.402939,206.156326 226.942810,196.263535 230.380798,181.190216 
	C233.596222,167.092621 234.731064,152.440918 235.808914,137.960678 
	C236.660660,126.518143 231.710968,116.795341 223.958725,108.383583 
	C222.049866,106.312340 220.632278,103.475471 219.849747,100.743935 
	C218.196854,94.974487 215.073807,91.270493 209.025146,89.779579 
	C202.127213,88.079308 201.034760,86.242378 200.939148,78.833084 
	C200.928391,78.000732 200.973572,77.162895 200.894958,76.336914 
	C200.233200,69.382301 197.741882,67.146645 190.711121,67.020935 
	C188.899704,66.988541 187.008484,66.999016 185.298996,66.496391 
	C179.638031,64.831940 174.033600,62.971706 168.428085,61.124088 
	C166.245285,60.404625 164.017944,59.713608 161.981750,58.674755 
	C153.594254,54.395504 145.219864,51.223946 135.379333,53.749367 
	C132.171921,54.572502 128.066284,53.395496 124.772865,52.107147 
	C114.162788,47.956589 107.699501,49.950043 101.068428,59.983883 
	C99.138611,60.361626 97.223282,60.933380 95.276115,61.078766 
	C90.472885,61.437393 86.776398,63.706493 84.161621,67.565628 
	C81.232765,71.888298 78.609550,76.418053 75.214348,81.067757 
z"/>
<path fill="#F9CDC5" opacity="1.000000" stroke="none" 
	d="
M101.849724,59.841366 
	C107.699501,49.950043 114.162788,47.956589 124.772865,52.107147 
	C128.066284,53.395496 132.171921,54.572502 135.379333,53.749367 
	C145.219864,51.223946 153.594254,54.395504 161.981750,58.674755 
	C164.017944,59.713608 166.245285,60.404625 168.428085,61.124088 
	C174.033600,62.971706 179.638031,64.831940 185.298996,66.496391 
	C187.008484,66.999016 188.899704,66.988541 190.711121,67.020935 
	C197.741882,67.146645 200.233200,69.382301 200.894958,76.336914 
	C200.973572,77.162895 200.928391,78.000732 200.939148,78.833084 
	C201.034760,86.242378 202.127213,88.079308 209.025146,89.779579 
	C215.073807,91.270493 218.196854,94.974487 219.849747,100.743935 
	C220.632278,103.475471 222.049866,106.312340 223.958725,108.383583 
	C231.710968,116.795341 236.660660,126.518143 235.808914,137.960678 
	C234.731064,152.440918 233.596222,167.092621 230.380798,181.190216 
	C226.942810,196.263535 215.402939,206.156326 203.457886,215.299866 
	C192.602264,223.609436 180.591064,228.479279 166.970123,228.835648 
	C162.676254,228.947968 158.852814,228.908997 154.848755,231.278320 
	C148.150299,235.242004 141.311920,231.472794 134.572998,230.216049 
	C132.155441,229.765167 129.551102,228.635086 127.325760,229.131638 
	C118.716400,231.052582 111.562325,227.771530 104.286942,223.960098 
	C93.064667,218.080963 82.752296,211.053329 74.096710,201.319595 
	C74.148590,200.850662 74.424606,200.572281 74.718224,200.727966 
	C85.918022,208.411697 96.646927,216.218964 107.826576,223.316208 
	C111.736633,225.798462 116.903915,228.103485 121.235214,227.697296 
	C127.767281,227.084686 133.683273,228.148529 139.880814,229.456161 
	C146.189850,230.787308 152.712692,231.781494 158.531586,227.234283 
	C159.547363,226.440460 161.292755,226.436371 162.719711,226.338715 
	C167.643616,226.001770 172.649826,226.233978 177.490433,225.435547 
	C190.485733,223.292053 200.607468,215.578674 210.225571,207.292648 
	C219.040741,199.698380 226.609451,190.975128 228.904221,179.111420 
	C230.920593,168.687042 232.735260,158.181915 233.815811,147.628174 
	C235.374023,132.409164 232.285217,118.450500 220.368546,107.582329 
	C219.439148,106.734711 218.389542,105.442657 218.330841,104.308754 
	C217.903381,96.051567 212.971237,92.296150 205.504440,90.711716 
	C201.387497,89.838135 199.344299,86.994476 199.067337,82.874939 
	C198.933350,80.881981 199.050522,78.870369 198.881531,76.881866 
	C198.365631,70.811279 196.823196,69.590302 190.869354,68.927582 
	C187.481995,68.550514 184.175690,67.345955 180.866562,66.396599 
	C178.166138,65.621880 175.525024,64.642876 172.840988,63.807919 
	C168.283295,62.390095 163.596344,61.306477 159.175873,59.548836 
	C153.320709,57.220753 147.712555,53.294250 141.146332,54.952362 
	C133.549988,56.870605 126.667702,54.864979 119.689232,52.659729 
	C115.167488,51.230827 111.221191,51.637497 107.845757,55.337975 
	C106.180878,57.163177 104.209312,58.708630 102.244423,60.246227 
	C102.112328,60.111790 101.849724,59.841366 101.849724,59.841366 
z"/>
<path fill="#F9CDC5" opacity="1.000000" stroke="none" 
	d="
M74.010719,200.989990 
	C65.426582,194.797745 59.274719,186.833939 57.164055,176.324890 
	C54.858845,164.847214 52.348026,153.359894 51.058491,141.751083 
	C50.433056,136.120712 51.449608,129.868088 53.366608,124.482285 
	C58.053482,111.314537 62.383350,97.873573 70.849426,86.406151 
	C72.212982,84.559196 73.754890,82.843910 75.672531,81.098694 
	C76.130714,81.129631 76.407494,81.402176 76.264679,81.707382 
	C66.796638,93.979263 61.424526,107.890541 56.381058,121.978340 
	C53.437515,130.200470 51.308205,138.427002 53.705273,147.241348 
	C54.657871,150.744186 55.238300,154.376236 55.671570,157.987442 
	C57.562584,173.748459 61.260853,188.681366 73.936676,199.710175 
	C74.171555,199.914520 74.265114,200.281296 74.424606,200.572281 
	C74.424606,200.572281 74.148590,200.850662 74.010719,200.989990 
z"/>
<path fill="#F9CDC5" opacity="1.000000" stroke="none" 
	d="
M75.992020,80.993668 
	C78.609550,76.418053 81.232765,71.888298 84.161621,67.565628 
	C86.776398,63.706493 90.472885,61.437393 95.276115,61.078766 
	C97.223282,60.933380 99.138611,60.361626 101.459076,59.912624 
	C101.849724,59.841366 102.112328,60.111790 102.060791,60.559055 
	C100.563629,61.647202 99.134354,62.795338 97.669571,62.842602 
	C90.718323,63.066906 86.514587,66.532730 83.562271,72.726936 
	C81.997635,76.009659 78.843872,78.534950 76.407494,81.402176 
	C76.407494,81.402176 76.130714,81.129631 75.992020,80.993668 
z"/>
<path fill="#EC6047" opacity="1.000000" stroke="none" 
	d="
M76.264679,81.707382 
	C78.843872,78.534950 81.997635,76.009659 83.562271,72.726936 
	C86.514587,66.532730 90.718323,63.066906 97.669571,62.842602 
	C99.134354,62.795338 100.563629,61.647202 102.192886,60.693493 
	C104.209312,58.708630 106.180878,57.163177 107.845757,55.337975 
	C111.221191,51.637497 115.167488,51.230827 119.689232,52.659729 
	C126.667702,54.864979 133.549988,56.870605 141.146332,54.952362 
	C147.712555,53.294250 153.320709,57.220753 159.175873,59.548836 
	C163.596344,61.306477 168.283295,62.390095 172.840988,63.807919 
	C175.525024,64.642876 178.166138,65.621880 180.866562,66.396599 
	C184.175690,67.345955 187.481995,68.550514 190.869354,68.927582 
	C196.823196,69.590302 198.365631,70.811279 198.881531,76.881866 
	C199.050522,78.870369 198.933350,80.881981 199.067337,82.874939 
	C199.344299,86.994476 201.387497,89.838135 205.504440,90.711716 
	C212.971237,92.296150 217.903381,96.051567 218.330841,104.308754 
	C218.389542,105.442657 219.439148,106.734711 220.368546,107.582329 
	C232.285217,118.450500 235.374023,132.409164 233.815811,147.628174 
	C232.735260,158.181915 230.920593,168.687042 228.904221,179.111420 
	C226.609451,190.975128 219.040741,199.698380 210.225571,207.292648 
	C200.607468,215.578674 190.485733,223.292053 177.490433,225.435547 
	C172.649826,226.233978 167.643616,226.001770 162.719711,226.338715 
	C161.292755,226.436371 159.547363,226.440460 158.531586,227.234283 
	C152.712692,231.781494 146.189850,230.787308 139.880814,229.456161 
	C133.683273,228.148529 127.767281,227.084686 121.235214,227.697296 
	C116.903915,228.103485 111.736633,225.798462 107.826576,223.316208 
	C96.646927,216.218964 85.918022,208.411697 74.718224,200.727966 
	C74.265114,200.281296 74.171555,199.914520 73.936676,199.710175 
	C61.260853,188.681366 57.562584,173.748459 55.671570,157.987442 
	C55.238300,154.376236 54.657871,150.744186 53.705273,147.241348 
	C51.308205,138.427002 53.437515,130.200470 56.381058,121.978340 
	C61.424526,107.890541 66.796638,93.979263 76.264679,81.707382 
M133.039780,164.936966 
	C133.959320,156.209747 135.180374,147.501328 135.725403,138.750778 
	C136.479965,126.635918 136.585205,114.481422 137.270645,102.360985 
	C137.492310,98.441429 137.570648,93.979240 133.612640,93.084526 
	C129.558243,92.168030 124.942680,93.593994 120.613045,94.257675 
	C120.193649,94.321968 119.863136,96.235039 119.833572,97.299408 
	C119.778389,99.286613 120.053131,101.280746 120.054390,103.272095 
	C120.070732,129.077377 120.104874,154.882812 120.021141,180.687836 
	C120.006836,185.096252 120.830498,188.781876 125.713387,189.867493 
	C130.776047,190.993057 133.220306,188.102737 135.046844,183.756287 
	C139.612381,172.892136 144.407181,162.122269 149.266434,151.385376 
	C150.242065,149.229691 151.910416,147.387512 153.259384,145.400772 
	C153.811646,145.601074 154.363922,145.801361 154.916183,146.001663 
	C155.649002,149.184540 156.369125,152.370407 157.117172,155.549698 
	C158.898788,163.121704 160.029846,170.930603 162.657639,178.197632 
	C165.676575,186.546387 173.110809,187.339890 179.000000,181.045731 
	C185.846054,173.728928 185.618530,164.708160 186.488281,154.314423 
	C181.285553,160.042999 182.804016,168.482208 174.446579,172.059235 
	C173.466446,165.429138 172.516251,159.643570 171.779114,153.831009 
	C171.069977,148.239166 171.177109,142.473129 169.845581,137.048721 
	C168.164429,130.200134 160.505753,127.714249 154.737152,131.829773 
	C152.695801,133.286148 150.968124,135.580994 149.847626,137.861725 
	C144.371323,149.008499 139.148529,160.279800 133.488892,172.240875 
	C132.948654,170.106583 132.670364,169.007172 132.456940,167.283020 
	C132.452057,166.660034 132.447174,166.037048 133.039780,164.936966 
z"/>
<path fill="#F8D2CB" opacity="1.000000" stroke="none" 
	d="
M132.392075,167.907776 
	C132.670364,169.007172 132.948654,170.106583 133.488892,172.240875 
	C139.148529,160.279800 144.371323,149.008499 149.847626,137.861725 
	C150.968124,135.580994 152.695801,133.286148 154.737152,131.829773 
	C160.505753,127.714249 168.164429,130.200134 169.845581,137.048721 
	C171.177109,142.473129 171.069977,148.239166 171.779114,153.831009 
	C172.516251,159.643570 173.466446,165.429138 174.446579,172.059235 
	C182.804016,168.482208 181.285553,160.042999 186.488281,154.314423 
	C185.618530,164.708160 185.846054,173.728928 179.000000,181.045731 
	C173.110809,187.339890 165.676575,186.546387 162.657639,178.197632 
	C160.029846,170.930603 158.898788,163.121704 157.117172,155.549698 
	C156.369125,152.370407 155.649002,149.184540 154.916183,146.001663 
	C154.363922,145.801361 153.811646,145.601074 153.259384,145.400772 
	C151.910416,147.387512 150.242065,149.229691 149.266434,151.385376 
	C144.407181,162.122269 139.612381,172.892136 135.046844,183.756287 
	C133.220306,188.102737 130.776047,190.993057 125.713387,189.867493 
	C120.830498,188.781876 120.006836,185.096252 120.021141,180.687836 
	C120.104874,154.882812 120.070732,129.077377 120.054390,103.272095 
	C120.053131,101.280746 119.778389,99.286613 119.833572,97.299408 
	C119.863136,96.235039 120.193649,94.321968 120.613045,94.257675 
	C124.942680,93.593994 129.558243,92.168030 133.612640,93.084526 
	C137.570648,93.979240 137.492310,98.441429 137.270645,102.360985 
	C136.585205,114.481422 136.479965,126.635918 135.725403,138.750778 
	C135.180374,147.501328 133.959320,156.209747 132.584473,164.692902 
	C132.824677,149.705215 133.538773,134.962448 134.207657,120.217628 
	C134.530899,113.091866 134.819687,105.963676 135.023376,98.833717 
	C135.117523,95.537979 133.261307,93.632233 130.057373,94.136116 
	C127.093773,94.602219 122.488396,93.339027 122.109711,98.043755 
	C121.644997,103.817345 122.190056,109.671471 122.284912,115.491005 
	C122.450012,125.620262 122.777657,135.750671 122.719269,145.878784 
	C122.648399,158.170547 122.083923,170.461655 122.177452,182.749664 
	C122.190598,184.477402 124.460136,187.151108 126.170540,187.621185 
	C127.755417,188.056778 130.583939,186.609436 131.793900,185.120789 
	C133.429291,183.108719 134.041229,180.264740 135.110184,177.735336 
	C129.083603,175.737671 128.650925,173.660156 132.392075,167.907776 
M168.363022,137.685333 
	C166.508942,134.281509 164.084625,131.607529 159.788895,132.158783 
	C152.687851,133.070007 151.627563,139.199356 148.849243,144.443161 
	C156.708923,143.796783 156.990646,143.506699 158.473648,151.111359 
	C159.950165,158.682739 161.381485,166.264755 163.003372,173.805389 
	C164.408585,180.338638 168.482803,184.060211 172.679337,182.966858 
	C176.776581,181.899368 183.017502,172.384293 182.627335,168.809814 
	C180.682297,170.230637 178.388824,171.905975 176.095352,173.581329 
	C174.475403,171.092545 171.816116,168.756348 171.424301,166.087280 
	C170.081177,156.937988 169.533264,147.671967 168.363022,137.685333 
M138.212677,170.663574 
	C138.263702,170.278137 138.314713,169.892700 138.365723,169.507263 
	C138.097198,169.507202 137.828659,169.507141 137.560135,169.507080 
	C137.599503,169.892380 137.638855,170.277695 138.212677,170.663574 
M136.607513,174.317062 
	C136.383743,174.008026 136.159973,173.698975 135.936203,173.389938 
	C135.743393,173.581757 135.550598,173.773575 135.357803,173.965393 
	C135.650528,174.208328 135.943268,174.451263 136.607513,174.317062 
z"/>
<path fill="#FFFEFE" opacity="1.000000" stroke="none" 
	d="
M132.424500,167.595398 
	C128.650925,173.660156 129.083603,175.737671 135.110184,177.735336 
	C134.041229,180.264740 133.429291,183.108719 131.793900,185.120789 
	C130.583939,186.609436 127.755417,188.056778 126.170540,187.621185 
	C124.460136,187.151108 122.190598,184.477402 122.177452,182.749664 
	C122.083923,170.461655 122.648399,158.170547 122.719269,145.878784 
	C122.777657,135.750671 122.450012,125.620262 122.284912,115.491005 
	C122.190056,109.671471 121.644997,103.817345 122.109711,98.043755 
	C122.488396,93.339027 127.093773,94.602219 130.057373,94.136116 
	C133.261307,93.632233 135.117523,95.537979 135.023376,98.833717 
	C134.819687,105.963676 134.530899,113.091866 134.207657,120.217628 
	C133.538773,134.962448 132.824677,149.705215 132.285706,164.931442 
	C132.447174,166.037048 132.452057,166.660034 132.424500,167.595398 
z"/>
<path fill="#FFFEFE" opacity="1.000000" stroke="none" 
	d="
M168.522583,138.067902 
	C169.533264,147.671967 170.081177,156.937988 171.424301,166.087280 
	C171.816116,168.756348 174.475403,171.092545 176.095352,173.581329 
	C178.388824,171.905975 180.682297,170.230637 182.627335,168.809814 
	C183.017502,172.384293 176.776581,181.899368 172.679337,182.966858 
	C168.482803,184.060211 164.408585,180.338638 163.003372,173.805389 
	C161.381485,166.264755 159.950165,158.682739 158.473648,151.111359 
	C156.990646,143.506699 156.708923,143.796783 148.849243,144.443161 
	C151.627563,139.199356 152.687851,133.070007 159.788895,132.158783 
	C164.084625,131.607529 166.508942,134.281509 168.522583,138.067902 
z"/>
<path fill="#FFFEFE" opacity="1.000000" stroke="none" 
	d="
M137.945450,170.663284 
	C137.638855,170.277695 137.599503,169.892380 137.560135,169.507080 
	C137.828659,169.507141 138.097198,169.507202 138.365723,169.507263 
	C138.314713,169.892700 138.263702,170.278137 137.945450,170.663284 
z"/>
<path fill="#FFFEFE" opacity="1.000000" stroke="none" 
	d="
M136.421753,174.505615 
	C135.943268,174.451263 135.650528,174.208328 135.357803,173.965393 
	C135.550598,173.773575 135.743393,173.581757 135.936203,173.389938 
	C136.159973,173.698975 136.383743,174.008026 136.421753,174.505615 
z"/>
</svg>