<svg version="1.1" id="Layer_1" xmlns="http://www.w3.org/2000/svg" xmlns:xlink="http://www.w3.org/1999/xlink" x="0px" y="0px"
	 width="100%" viewBox="0 0 600 206" enable-background="new 0 0 600 206" xml:space="preserve">
<path fill="#FDFDFD" opacity="1.000000" stroke="none" 
	d="
M378.000000,207.000000 
	C252.038925,207.000000 126.577843,207.000000 1.058381,207.000000 
	C1.058381,138.393585 1.058381,69.787117 1.058381,1.090323 
	C200.877731,1.090323 400.755524,1.090323 600.816650,1.090323 
	C600.816650,69.666283 600.816650,138.333084 600.816650,207.000000 
	C526.787170,207.000000 452.643585,207.000000 378.000000,207.000000 
M235.873383,128.145020 
	C235.873383,128.145020 235.698654,128.239761 235.823898,128.837784 
	C236.552399,129.110214 237.280884,129.382629 238.583664,130.254074 
	C241.049149,130.292358 243.514633,130.330643 246.656433,130.476318 
	C248.231232,129.696777 249.806046,128.917252 251.831573,128.069794 
	C251.831573,128.069794 251.989258,127.642128 252.567764,127.639725 
	C253.080521,127.106308 253.593292,126.572884 254.713379,125.969818 
	C255.475586,125.313812 256.237793,124.657814 257.811249,123.770607 
	C260.966003,121.616013 260.214142,124.287521 260.588501,125.903877 
	C261.281464,128.895981 262.190125,131.838104 263.198883,135.154587 
	C263.198883,135.154587 263.600098,135.143112 263.957062,135.784088 
	C267.522827,137.873871 269.868256,136.793686 271.284943,132.872650 
	C271.284943,132.872650 271.246094,132.701477 271.802155,132.218063 
	C272.459442,130.143661 273.116699,128.069260 274.258881,125.386307 
	C276.397919,119.448570 278.536926,113.510834 280.675934,107.573097 
	C280.030151,107.307129 279.384369,107.041168 278.738586,106.775200 
	C277.128632,110.488998 275.518677,114.202805 273.277710,118.419144 
	C272.543457,118.587227 271.809174,118.755310 271.227203,118.081009 
	C271.312134,116.364433 271.397095,114.647865 272.134674,112.449455 
	C272.275879,109.891479 272.417114,107.333496 272.650024,103.884239 
	C272.691772,100.231926 272.733521,96.579613 273.137939,92.213356 
	C273.355743,89.761154 273.888336,87.284760 273.702301,84.863594 
	C273.518250,82.468628 272.608673,80.129417 271.899475,77.685425 
	C271.899475,77.685425 271.757141,77.695152 271.228088,77.084518 
	C268.254913,77.310097 265.281708,77.535675 262.097870,77.783531 
	C262.097870,77.783531 261.998810,77.970787 261.283386,78.234306 
	C261.040344,87.312302 260.194000,96.426628 260.737976,105.457222 
	C261.204712,113.206039 259.382843,119.036613 251.880493,122.729721 
	C251.589737,122.908371 251.298981,123.087021 250.200333,123.386398 
	C247.130615,123.702530 244.060898,124.018654 240.685837,123.841431 
	C240.419022,123.562050 240.152191,123.282661 239.946457,122.391022 
	C239.568985,121.951035 239.191513,121.511047 238.806747,120.269867 
	C238.560562,119.517471 238.314377,118.765068 238.275543,117.241478 
	C238.255936,114.154709 238.236313,111.067947 238.588593,107.331665 
	C238.592651,106.841240 238.596725,106.350807 239.122559,105.318695 
	C240.410828,98.878929 241.699097,92.439163 243.270889,85.469612 
	C243.265839,84.884331 243.260788,84.299049 243.811798,83.183182 
	C244.032578,81.116608 244.253342,79.050034 244.743271,76.210251 
	C244.781876,75.123817 244.820480,74.037392 245.336456,72.468536 
	C245.570541,70.309029 245.804642,68.149529 246.299728,65.364159 
	C246.272949,64.470222 246.246185,63.576286 246.732971,62.162758 
	C246.587143,59.856728 246.441299,57.550701 246.493668,54.803173 
	C246.499771,54.443897 246.346512,54.175758 246.043793,53.294125 
	C241.284988,48.136684 237.729141,47.214672 231.625854,49.614925 
	C230.355408,50.868801 229.084946,52.122677 227.267517,53.893314 
	C226.457458,57.601326 225.647385,61.309338 224.460678,65.750313 
	C224.558823,66.827248 224.656967,67.904190 224.570724,69.861420 
	C225.073380,74.897705 225.576035,79.933998 225.917389,85.779213 
	C224.955109,86.531807 224.099075,87.593796 223.007126,87.968788 
	C221.083298,88.629471 219.015442,88.870743 216.320831,89.328354 
	C213.847733,91.198936 211.374649,93.069511 208.982880,94.982452 
	C208.982880,94.982452 208.939774,94.901512 208.372635,95.034348 
	C208.071503,95.694984 207.770370,96.355614 207.079117,97.487236 
	C206.669937,98.182961 206.260757,98.878685 205.244034,99.901794 
	C204.490967,102.269638 203.737900,104.637489 202.671539,107.371651 
	C202.518951,107.693344 202.542282,108.001724 202.212921,108.739128 
	C201.943420,109.830498 201.673935,110.921875 201.033936,112.636124 
	C200.588531,114.212730 200.143127,115.789337 199.201111,117.848938 
	C197.808258,119.598351 196.415405,121.347755 194.577454,122.686447 
	C194.008560,122.124657 193.439682,121.562866 192.981293,120.188728 
	C192.544510,118.168678 192.107742,116.148628 191.919647,113.244804 
	C191.712753,110.834152 191.505875,108.423492 191.478287,105.132904 
	C190.394180,99.193016 189.310089,93.253120 187.947845,86.724586 
	C181.637024,83.034744 177.991776,83.778610 174.262833,89.820816 
	C170.209488,96.388680 166.345154,103.073204 161.763184,109.374588 
	C161.223267,108.914856 160.683334,108.455132 160.271301,107.256615 
	C160.346985,106.261253 160.422684,105.265892 161.053406,103.935013 
	C161.114120,103.159622 161.174835,102.384232 161.297745,100.735611 
	C161.527695,98.084503 161.747253,95.432449 161.990158,92.782532 
	C162.300308,89.399139 161.586578,86.739372 157.523392,86.481125 
	C153.414169,86.219933 152.012253,88.709114 151.625732,92.286339 
	C150.609390,101.692657 149.625168,111.103699 148.439606,120.489052 
	C148.271652,121.818634 147.052277,123.015396 146.319550,124.273636 
	C145.245270,123.011780 143.428436,121.858276 143.225754,120.469238 
	C142.365280,114.572418 141.642914,108.614349 141.492157,102.662903 
	C141.069336,85.970734 143.932831,88.296387 126.411667,87.974319 
	C120.722221,87.869743 116.142601,89.930725 113.284737,94.549095 
	C110.361740,99.272720 108.277489,104.521202 105.900162,109.574776 
	C104.018181,113.575378 103.523460,118.543663 97.915184,120.767807 
	C97.268486,117.856232 96.531006,115.492531 96.245064,113.075409 
	C95.250015,104.663918 94.449051,96.229675 93.497246,87.812798 
	C93.031105,83.690613 90.612587,81.068985 86.585060,80.366425 
	C82.439964,79.643356 79.098160,80.949341 77.189072,85.091492 
	C74.491074,90.945335 71.654060,96.735115 68.876472,102.552277 
	C69.343376,102.918167 69.810280,103.284058 70.277191,103.649948 
	C73.054916,100.508606 75.832642,97.367264 79.450180,93.276169 
	C80.481323,96.821976 81.346458,99.536034 82.057281,102.289917 
	C84.240074,110.746582 85.866661,119.388466 88.683136,127.625420 
	C90.597519,133.224106 96.792419,133.751251 100.679634,129.225418 
	C102.817108,126.736809 104.553978,123.904121 106.637321,120.994987 
	C109.877464,126.275871 113.432571,132.160263 120.177567,131.180786 
	C125.748840,130.371750 130.948868,127.006233 136.469864,124.708420 
	C142.578033,132.490662 147.719345,133.461472 155.649567,127.275063 
	C162.131165,122.218719 165.165756,114.753052 168.614395,106.953552 
	C169.339172,105.967651 170.063965,104.981750 171.168655,103.651146 
	C171.180984,103.320297 171.193314,102.989456 171.849075,102.131737 
	C173.319092,101.036560 174.789108,99.941391 176.708298,98.511581 
	C177.683411,102.259773 178.422089,105.099174 179.014206,108.753632 
	C179.178421,109.832146 179.342651,110.910667 179.341232,112.679504 
	C179.795776,113.704895 180.250320,114.730278 180.446518,116.377586 
	C180.605652,117.243225 180.764801,118.108871 180.748642,119.507507 
	C181.170059,120.669891 181.591492,121.832268 182.011337,123.774780 
	C182.231842,124.512352 182.452347,125.249931 182.502380,126.540596 
	C182.963211,127.133308 183.424042,127.726021 183.984390,129.009064 
	C185.988754,129.942291 187.993103,130.875534 190.662979,131.880264 
	C191.373245,131.367386 192.083511,130.854507 193.400330,130.428101 
	C194.316208,129.428162 195.232086,128.428207 196.768845,127.110786 
	C198.490158,124.999603 200.211456,122.888420 202.209671,120.437599 
	C203.615753,122.323959 204.744095,123.837692 205.915161,125.932655 
	C206.761703,126.683220 207.608261,127.433792 208.700302,128.886963 
	C212.085373,129.466293 215.470459,130.045624 219.585571,130.844727 
	C220.049042,130.688141 220.512527,130.531555 221.621124,130.469559 
	C223.189682,129.353806 224.758240,128.238068 226.780106,127.094063 
	C226.780106,127.094063 226.991302,126.691963 227.597092,126.663765 
	C228.187164,126.153687 228.777237,125.643600 229.795578,125.123032 
	C230.092972,124.968941 230.208176,124.727821 230.831909,124.272331 
	C231.850189,124.616669 232.868454,124.961006 233.809891,125.713661 
	C233.809891,125.713661 234.113953,125.996826 234.099762,126.595909 
	C234.647247,127.162056 235.194717,127.728195 235.873383,128.145020 
M399.779144,129.206528 
	C399.779144,129.206528 399.823669,129.281830 400.538605,129.117722 
	C402.331726,127.533195 404.124847,125.948662 406.532593,124.469711 
	C406.727173,124.542862 406.921753,124.616013 407.194794,125.633522 
	C407.194794,128.830688 407.194794,132.027863 407.194794,135.587051 
	C414.415588,132.716568 416.390625,129.526489 416.728027,122.766975 
	C417.515381,106.993736 418.430908,91.225533 419.474701,75.467224 
	C419.834381,70.036568 421.190857,69.250305 427.361755,70.232018 
	C427.361755,91.769234 427.361755,113.398987 427.361755,135.859299 
	C432.386261,132.950165 436.041840,130.486008 436.332520,125.017647 
	C437.303467,106.752518 438.443451,88.496223 439.367584,70.228905 
	C439.525665,67.104317 440.598846,65.514610 443.685730,64.553200 
	C449.818878,62.643017 455.863342,60.398235 461.797302,57.936974 
	C463.113922,57.390854 463.820526,55.374012 464.807983,54.034344 
	C463.352936,53.900803 461.844116,53.450909 460.451996,53.687569 
	C453.824799,54.814167 447.229340,56.127495 440.440491,57.408737 
	C439.972748,53.842327 439.478607,50.912354 439.225342,47.961704 
	C438.762054,42.564453 435.357788,42.311535 431.061401,42.767738 
	C426.339081,43.269173 426.545227,46.092396 427.112976,49.546139 
	C427.406525,51.331886 427.180725,53.204353 427.175598,55.037601 
	C427.159546,60.796562 426.190674,61.622616 419.788940,61.020508 
	C419.788940,59.075226 419.789032,57.094418 419.788910,55.113609 
	C419.788788,52.946983 419.740570,50.779064 419.798798,48.614010 
	C419.901215,44.805550 417.942535,42.055676 414.335480,42.428852 
	C408.382446,43.044739 406.966431,42.335121 407.213135,48.593712 
	C407.370422,52.583744 407.453156,56.578571 407.709930,60.562183 
	C407.885132,63.280075 407.280396,64.866974 404.103424,65.247147 
	C400.517303,65.676270 397.022522,66.843506 393.475372,67.632843 
	C390.792084,68.229973 387.862030,68.689423 388.743896,72.512489 
	C389.556854,76.037056 392.230988,76.500122 395.349213,75.956100 
	C399.170715,75.289383 403.005493,74.698631 407.233307,74.010094 
	C407.233307,85.981544 406.755829,97.138191 407.400024,108.229683 
	C407.834412,115.708221 405.619629,121.339279 399.321320,125.878075 
	C398.670105,126.562683 398.018890,127.247292 396.785065,128.200851 
	C396.506531,128.519363 396.228027,128.837875 395.175262,128.707047 
	C395.040955,120.459091 394.906647,112.211143 395.210144,103.303047 
	C395.083313,99.546783 394.956482,95.790520 394.819855,91.334801 
	C392.066040,89.684738 391.686646,89.948708 389.224304,95.092575 
	C389.078156,96.452873 388.932007,97.813179 388.514557,99.768127 
	C388.425018,100.194000 388.335480,100.619865 387.642548,101.389404 
	C387.516754,102.289940 387.390961,103.190483 386.958405,104.774155 
	C385.463409,109.330338 383.968445,113.886513 382.027191,118.915169 
	C381.092224,120.302361 380.157227,121.689560 378.846497,123.483040 
	C378.595215,123.753166 378.343933,124.023293 377.247040,124.301582 
	C376.133392,124.298286 375.019745,124.294998 373.470215,123.817284 
	C373.164825,123.252045 372.859436,122.686806 372.726898,121.469757 
	C372.298370,120.475067 371.869843,119.480370 371.564636,117.620461 
	C371.377228,108.747108 371.189789,99.873764 371.298126,90.511421 
	C370.568756,89.297768 369.839355,88.084114 369.031677,87.009850 
	C369.031677,87.009850 369.126343,86.879509 368.877472,86.286201 
	C367.880798,85.989235 366.884094,85.692268 365.155457,85.145706 
	C364.155060,85.287773 363.154633,85.429840 361.441864,85.556335 
	C361.209839,89.424423 360.977844,93.292503 360.441193,98.020477 
	C360.543274,102.296280 360.645355,106.572083 360.416870,111.596634 
	C360.863739,113.513680 361.310638,115.430733 361.673920,118.117172 
	C361.902588,119.376389 362.131256,120.635605 362.253693,122.490433 
	C362.681580,123.166534 363.109436,123.842644 363.580048,125.066933 
	C363.792694,125.352112 364.005371,125.637291 364.350311,126.543320 
	C365.211853,127.398079 366.073364,128.252838 367.253265,129.635284 
	C368.178253,130.041092 369.103210,130.446899 370.441864,131.504257 
	C372.605560,131.231430 374.769226,130.958588 377.602051,130.692505 
	C379.586487,128.985504 381.570953,127.278511 384.005951,125.103821 
	C384.898590,123.703049 385.791229,122.302284 386.923126,120.449829 
	C386.937775,120.280090 386.952423,120.110352 387.566986,119.909607 
	C387.916046,120.101578 388.265106,120.293556 388.492157,121.136795 
	C388.488281,122.237892 388.484436,123.338982 388.015167,125.043350 
	C387.772675,128.394150 387.530182,131.744965 386.721893,135.459259 
	C384.819794,136.985962 382.917664,138.512665 380.390594,140.037766 
	C379.801758,140.600967 379.212921,141.164154 378.008820,142.030853 
	C375.420746,143.964676 372.630249,145.683517 370.293304,147.884018 
	C367.002655,150.982544 363.056854,153.957458 361.170441,157.847931 
	C357.931030,164.528885 362.224396,174.832214 368.648224,177.252136 
	C375.586914,179.866028 385.538513,178.117828 390.773834,167.891205 
	C391.369659,165.883316 391.965485,163.875427 392.894135,161.195938 
	C393.070282,159.962692 393.246399,158.729462 394.057220,157.019867 
	C394.182129,149.962891 394.307068,142.905899 394.657654,135.222046 
	C395.197144,134.274460 395.736603,133.326889 396.926453,132.294250 
	C397.697632,131.589340 398.468811,130.884415 399.675903,129.761749 
	C399.685883,129.560745 399.695892,129.359756 399.779144,129.206528 
M522.839417,122.274529 
	C522.839417,122.274529 522.575928,122.145515 522.646729,121.469902 
	C522.198914,120.457161 521.751160,119.444420 521.409424,117.953514 
	C521.414673,117.614159 521.317871,117.306976 521.306702,116.273773 
	C520.792114,109.205704 520.277527,102.137634 519.837219,94.383926 
	C519.713501,93.945297 519.589844,93.506660 519.654053,92.389168 
	C519.128845,91.206032 518.603577,90.022903 517.940308,88.235619 
	C516.855591,87.350182 515.770935,86.464745 514.128723,85.099838 
	C511.375793,85.700813 508.622833,86.301788 505.976593,86.975250 
	C505.976593,86.975250 505.902496,86.869667 505.295715,87.004295 
	C504.821808,87.649834 504.347900,88.295380 503.281342,89.255951 
	C502.478149,91.085266 501.674957,92.914574 500.294067,95.020409 
	C499.588745,96.023972 498.883423,97.027542 497.817352,98.627190 
	C495.112061,103.207115 492.406738,107.787048 489.701447,112.366974 
	C489.600677,106.211853 490.690552,100.538467 491.348816,94.815437 
	C491.962677,89.478302 489.882721,86.486916 485.886871,86.554680 
	C481.017365,86.637260 480.813568,90.167564 480.594299,93.888718 
	C480.025269,103.548149 480.776154,113.590187 470.948730,120.095871 
	C467.368103,122.466225 464.164673,125.719986 459.879059,123.285416 
	C455.724884,120.925507 454.778839,116.650887 455.969482,111.867874 
	C463.183960,110.506241 469.176941,107.494659 472.978088,100.905281 
	C477.152161,93.669373 474.970551,84.666130 468.306427,83.749710 
	C461.140625,82.764297 454.509552,84.409012 449.209839,89.837990 
	C442.541748,96.668747 440.687408,105.047272 441.817535,114.126160 
	C443.479553,127.478004 452.145508,134.605896 464.205261,131.712646 
	C468.916748,130.582336 472.946533,126.610550 477.537079,123.778542 
	C483.458893,129.522705 486.104187,129.066574 490.776093,120.584641 
	C494.126740,114.501488 497.354065,108.344528 500.917542,102.388725 
	C501.777435,100.951523 503.749908,100.179993 505.210754,99.102364 
	C505.951019,100.625679 507.034241,102.076675 507.373322,103.684593 
	C509.006409,111.429253 510.134735,119.292007 512.046143,126.962349 
	C513.389587,132.353485 518.816650,133.861664 522.852600,130.061584 
	C525.752869,127.330894 527.923523,123.825424 530.860474,120.216507 
	C531.191345,119.469185 531.522217,118.721870 532.208923,117.472542 
	C532.622742,116.542557 533.036621,115.612579 533.879333,114.254379 
	C534.238159,112.839661 534.596985,111.424934 535.199097,109.290764 
	C535.405029,107.870476 535.610962,106.450195 536.043030,104.442642 
	C535.658325,103.901161 535.273560,103.359688 534.888855,102.818207 
	C534.300598,103.552536 533.712402,104.286865 532.868774,105.727554 
	C532.423706,107.120201 531.978577,108.512856 531.017517,110.242981 
	C530.513062,111.852310 530.008606,113.461632 529.118652,115.671486 
	C528.062195,117.738998 527.005798,119.806519 525.173706,122.120979 
	C524.387451,122.269608 523.601135,122.418236 522.839417,122.274529 
M340.019623,130.037750 
	C340.019623,130.037750 340.090149,130.125839 340.735413,129.809082 
	C340.894836,127.525345 341.054260,125.241615 341.594727,122.107857 
	C341.664337,117.717743 341.733948,113.327637 342.307068,108.450165 
	C342.435669,107.292290 342.564270,106.134422 343.020813,104.600777 
	C343.020813,104.600777 343.042328,104.102501 343.561920,103.880188 
	C343.865204,103.240379 344.168518,102.600563 344.863190,101.388428 
	C345.885590,100.187439 346.907990,98.986450 348.540070,97.690453 
	C349.171661,97.184616 349.803284,96.678780 351.140747,96.160950 
	C352.413147,95.560326 353.685577,94.959694 355.501801,94.498901 
	C355.968231,93.996132 356.434692,93.493355 357.290985,92.536652 
	C357.205444,92.356476 357.119934,92.176292 356.953003,91.225250 
	C354.047333,91.352364 351.141663,91.479477 347.557617,91.429619 
	C346.714569,91.740128 345.871490,92.050636 344.369019,92.413551 
	C343.068695,93.207161 341.768402,94.000763 340.138641,94.791496 
	C340.138641,94.791496 340.008026,95.093948 339.267059,95.075645 
	C338.536407,94.989937 337.805786,94.904221 337.040405,94.156776 
	C335.256622,92.334221 333.472870,90.511665 331.146851,88.186279 
	C329.763672,87.776894 328.380463,87.367508 326.515747,86.528603 
	C326.396271,85.482231 326.276794,84.435860 326.717804,82.918846 
	C327.170654,80.763939 327.623474,78.609032 328.076324,76.454117 
	C327.754486,76.281197 327.432648,76.108276 327.110809,75.935356 
	C326.360840,76.616402 325.610870,77.297447 324.690582,78.100883 
	C324.690582,78.100883 324.676575,78.310158 324.183167,78.714989 
	C323.932892,79.487099 323.682587,80.259209 323.067322,81.603928 
	C322.991974,82.273834 322.916626,82.943733 322.274323,84.023384 
	C321.573761,86.020355 320.873199,88.017326 319.802704,90.510986 
	C319.775574,91.118988 319.748444,91.726990 319.196442,92.839279 
	C318.559692,94.900093 317.922943,96.960907 316.881531,99.362747 
	C316.838867,99.703972 316.796204,100.045197 316.212128,100.867538 
	C315.285065,103.566307 314.358002,106.265076 312.989746,109.635422 
	C311.316742,113.707062 309.643768,117.778702 307.970795,121.850349 
	C307.258118,121.725243 306.545441,121.600143 305.832764,121.475044 
	C305.260712,119.532028 304.364288,117.620178 304.174042,115.640480 
	C303.442810,108.030746 303.046967,100.388618 302.303314,92.780342 
	C301.921295,88.871994 300.679230,85.061363 296.379303,83.866615 
	C291.669891,82.558090 288.203644,84.781914 286.266541,89.017265 
	C284.037811,93.890236 282.133331,98.915115 280.242981,103.932419 
	C280.091309,104.335007 281.141876,105.190552 281.816986,106.075890 
	C282.759308,104.209572 283.244537,102.595909 284.248840,101.428986 
	C285.434296,100.051567 287.068665,99.060463 288.508392,97.901878 
	C289.139618,99.331505 290.008728,100.704834 290.362518,102.200111 
	C292.307037,110.418243 293.881470,118.734467 296.153870,126.857307 
	C296.742096,128.960052 299.244812,131.729324 301.116974,131.935791 
	C303.024170,132.146103 305.961975,130.036560 307.174835,128.131744 
	C310.194702,123.389061 312.490326,118.185234 315.405518,112.852570 
	C315.594940,112.237846 315.784363,111.623123 316.241699,110.387337 
	C316.466064,109.594666 316.690460,108.801987 317.126221,107.582573 
	C317.126221,107.582573 317.210205,107.113785 317.782074,106.912376 
	C318.296478,105.842369 318.810852,104.772362 319.824615,103.167831 
	C320.209534,101.779091 320.594482,100.390350 321.230347,98.763992 
	C321.230347,98.763992 321.168488,98.423981 321.646454,97.931114 
	C321.982391,96.611824 322.318329,95.292542 323.015564,93.474335 
	C323.380157,92.748657 323.744720,92.022980 324.854828,91.008049 
	C325.853271,91.154701 326.851715,91.301361 327.999573,91.952995 
	C328.388428,92.297531 328.777313,92.642075 329.186920,93.631653 
	C329.686462,94.320404 330.186005,95.009163 330.435974,96.517151 
	C330.593445,103.001732 330.750916,109.486313 330.734955,116.721581 
	C331.458527,120.887527 332.182129,125.053474 332.998840,129.706543 
	C333.413910,129.933121 333.828979,130.159698 334.691406,130.985764 
	C336.501953,130.684784 338.312531,130.383804 340.019623,130.037750 
M62.414368,116.095802 
	C61.583942,115.394928 60.753517,114.694046 59.995644,113.093475 
	C60.198036,110.127419 60.400433,107.161369 61.248833,103.805893 
	C61.496220,98.537010 61.743610,93.268135 61.965809,87.180077 
	C62.062019,85.823448 62.158226,84.466812 62.982788,82.843147 
	C63.065315,75.238075 63.147842,67.633003 63.220356,59.102272 
	C63.222591,55.390957 63.224827,51.679646 63.665985,47.617538 
	C63.101871,47.084408 62.537758,46.551277 61.495499,45.682770 
	C61.058201,45.295654 60.620907,44.908543 59.960098,43.868702 
	C57.909191,44.054993 55.858284,44.241280 53.004196,44.644405 
	C51.295380,45.707188 49.586563,46.769970 47.433582,48.396763 
	C47.362144,60.647778 47.259140,72.898705 47.227600,85.149826 
	C47.191601,99.133636 47.103455,113.119507 47.332237,127.099670 
	C47.370762,129.453583 48.897732,131.783127 50.275414,134.600388 
	C55.786892,138.993347 58.875095,137.515396 62.546963,128.598648 
	C65.455101,121.122368 68.363243,113.646088 71.271385,106.169807 
	C70.948608,105.808052 70.625832,105.446289 70.303055,105.084526 
	C68.955383,106.149033 67.165199,106.954842 66.358101,108.335381 
	C64.956360,110.733055 64.162247,113.485970 62.414368,116.095802 
z"/>
<path fill="#302C2C" opacity="1.000000" stroke="none" 
	d="
M189.997467,131.808762 
	C187.993103,130.875534 185.988754,129.942291 183.957550,128.367661 
	C183.511429,127.146667 183.092133,126.567085 182.672852,125.987503 
	C182.452347,125.249931 182.231842,124.512352 182.267838,123.186234 
	C181.990860,121.389969 181.457397,120.182243 180.923950,118.974518 
	C180.764801,118.108871 180.605652,117.243225 180.656555,115.686356 
	C180.413345,113.993149 179.960098,112.991165 179.506866,111.989182 
	C179.342651,110.910667 179.178421,109.832146 179.336121,108.088684 
	C178.864746,103.945839 178.071472,100.467934 177.278183,96.990028 
	C176.571045,96.891960 175.863907,96.793884 175.156769,96.695808 
	C173.839737,98.683411 172.522690,100.671005 171.205658,102.658600 
	C171.193314,102.989456 171.180984,103.320297 170.634125,103.874283 
	C169.441635,105.184296 168.783646,106.271172 168.125671,107.358055 
	C165.165756,114.753052 162.131165,122.218719 155.649567,127.275063 
	C147.719345,133.461472 142.578033,132.490662 136.469864,124.708420 
	C130.948868,127.006233 125.748840,130.371750 120.177567,131.180786 
	C113.432571,132.160263 109.877464,126.275871 106.637321,120.994987 
	C104.553978,123.904121 102.817108,126.736809 100.679634,129.225418 
	C96.792419,133.751251 90.597519,133.224106 88.683136,127.625420 
	C85.866661,119.388466 84.240074,110.746582 82.057281,102.289917 
	C81.346458,99.536034 80.481323,96.821976 79.450180,93.276169 
	C75.832642,97.367264 73.054916,100.508606 70.277191,103.649948 
	C69.810280,103.284058 69.343376,102.918167 68.876472,102.552277 
	C71.654060,96.735115 74.491074,90.945335 77.189072,85.091492 
	C79.098160,80.949341 82.439964,79.643356 86.585060,80.366425 
	C90.612587,81.068985 93.031105,83.690613 93.497246,87.812798 
	C94.449051,96.229675 95.250015,104.663918 96.245064,113.075409 
	C96.531006,115.492531 97.268486,117.856232 97.915184,120.767807 
	C103.523460,118.543663 104.018181,113.575378 105.900162,109.574776 
	C108.277489,104.521202 110.361740,99.272720 113.284737,94.549095 
	C116.142601,89.930725 120.722221,87.869743 126.411667,87.974319 
	C143.932831,88.296387 141.069336,85.970734 141.492157,102.662903 
	C141.642914,108.614349 142.365280,114.572418 143.225754,120.469238 
	C143.428436,121.858276 145.245270,123.011780 146.319550,124.273636 
	C147.052277,123.015396 148.271652,121.818634 148.439606,120.489052 
	C149.625168,111.103699 150.609390,101.692657 151.625732,92.286339 
	C152.012253,88.709114 153.414169,86.219933 157.523392,86.481125 
	C161.586578,86.739372 162.300308,89.399139 161.990158,92.782532 
	C161.747253,95.432449 161.527695,98.084503 160.994904,101.325989 
	C160.627502,102.701088 160.562943,103.485809 160.498383,104.270531 
	C160.422684,105.265892 160.346985,106.261253 159.906189,107.864143 
	C159.310303,110.127785 159.079529,111.783897 158.848755,113.440002 
	C159.346909,113.612862 159.845062,113.785713 160.343216,113.958565 
	C161.028275,112.541328 161.713333,111.124092 162.398407,109.706863 
	C166.345154,103.073204 170.209488,96.388680 174.262833,89.820816 
	C177.991776,83.778610 181.637024,83.034744 188.048950,87.475189 
	C188.436020,90.471657 188.621429,92.736023 189.030563,94.959213 
	C189.711166,98.657654 190.535294,102.329681 191.298996,106.012840 
	C191.505875,108.423492 191.712753,110.834152 191.577484,113.978767 
	C191.780502,116.808846 192.325653,118.904961 192.870804,121.001083 
	C193.439682,121.562866 194.008560,122.124657 194.838348,123.263733 
	C195.448822,125.036766 195.798386,126.232521 196.147949,127.428268 
	C195.232086,128.428207 194.316208,129.428162 192.723312,130.302460 
	C191.363358,130.720810 190.680420,131.264786 189.997467,131.808762 
M121.859879,94.080231 
	C116.810951,98.836388 114.005211,104.667618 113.856110,111.609283 
	C113.749268,116.583946 117.675133,121.002121 122.011032,121.179298 
	C126.986237,121.382599 129.815094,118.707138 130.373611,112.906296 
	C130.849365,107.964806 131.014572,102.994225 131.383545,98.041458 
	C131.885513,91.303757 130.667572,90.368477 124.215538,92.683250 
	C123.598282,92.904716 123.029030,93.260017 121.859879,94.080231 
z"/>
<path fill="#302B2B" opacity="1.000000" stroke="none" 
	d="
M399.923706,125.861206 
	C405.619629,121.339279 407.834412,115.708221 407.400024,108.229683 
	C406.755829,97.138191 407.233307,85.981544 407.233307,74.010094 
	C403.005493,74.698631 399.170715,75.289383 395.349213,75.956100 
	C392.230988,76.500122 389.556854,76.037056 388.743896,72.512489 
	C387.862030,68.689423 390.792084,68.229973 393.475372,67.632843 
	C397.022522,66.843506 400.517303,65.676270 404.103424,65.247147 
	C407.280396,64.866974 407.885132,63.280075 407.709930,60.562183 
	C407.453156,56.578571 407.370422,52.583744 407.213135,48.593712 
	C406.966431,42.335121 408.382446,43.044739 414.335480,42.428852 
	C417.942535,42.055676 419.901215,44.805550 419.798798,48.614010 
	C419.740570,50.779064 419.788788,52.946983 419.788910,55.113609 
	C419.789032,57.094418 419.788940,59.075226 419.788940,61.020508 
	C426.190674,61.622616 427.159546,60.796562 427.175598,55.037601 
	C427.180725,53.204353 427.406525,51.331886 427.112976,49.546139 
	C426.545227,46.092396 426.339081,43.269173 431.061401,42.767738 
	C435.357788,42.311535 438.762054,42.564453 439.225342,47.961704 
	C439.478607,50.912354 439.972748,53.842327 440.440491,57.408737 
	C447.229340,56.127495 453.824799,54.814167 460.451996,53.687569 
	C461.844116,53.450909 463.352936,53.900803 464.807983,54.034348 
	C463.820526,55.374012 463.113922,57.390854 461.797302,57.936974 
	C455.863342,60.398235 449.818878,62.643017 443.685730,64.553200 
	C440.598846,65.514610 439.525665,67.104317 439.367584,70.228905 
	C438.443451,88.496223 437.303467,106.752518 436.332520,125.017647 
	C436.041840,130.486008 432.386261,132.950165 427.361755,135.859299 
	C427.361755,113.398987 427.361755,91.769234 427.361755,70.232018 
	C421.190857,69.250305 419.834381,70.036568 419.474701,75.467224 
	C418.430908,91.225533 417.515381,106.993736 416.728027,122.766975 
	C416.390625,129.526489 414.415588,132.716568 407.194794,135.587051 
	C407.194794,132.027863 407.194794,128.830688 407.112549,124.941467 
	C406.659515,124.287651 406.288727,124.325890 405.917969,124.364128 
	C404.124847,125.948662 402.331726,127.533195 400.189514,128.767303 
	C399.868164,127.564980 399.895935,126.713097 399.923706,125.861206 
z"/>
<path fill="#302B2B" opacity="1.000000" stroke="none" 
	d="
M525.949341,121.874039 
	C527.005798,119.806519 528.062195,117.738998 529.630920,115.284607 
	C530.732300,114.027687 531.321411,113.157631 532.171082,111.902679 
	C532.703674,113.059860 533.077087,113.871223 533.450439,114.682587 
	C533.036621,115.612579 532.622742,116.542557 531.670776,117.801186 
	C530.895020,118.975075 530.657288,119.820320 530.419617,120.665573 
	C527.923523,123.825424 525.752869,127.330894 522.852600,130.061584 
	C518.816650,133.861664 513.389587,132.353485 512.046143,126.962349 
	C510.134735,119.292007 509.006409,111.429253 507.373322,103.684593 
	C507.034241,102.076675 505.951019,100.625679 505.210754,99.102356 
	C503.749908,100.179993 501.777435,100.951523 500.917542,102.388725 
	C497.354065,108.344528 494.126740,114.501488 490.776093,120.584641 
	C486.104187,129.066574 483.458893,129.522705 477.537079,123.778542 
	C472.946533,126.610550 468.916748,130.582336 464.205261,131.712646 
	C452.145508,134.605896 443.479553,127.478004 441.817535,114.126160 
	C440.687408,105.047272 442.541748,96.668747 449.209839,89.837990 
	C454.509552,84.409012 461.140625,82.764297 468.306427,83.749710 
	C474.970551,84.666130 477.152161,93.669373 472.978088,100.905281 
	C469.176941,107.494659 463.183960,110.506241 455.969482,111.867874 
	C454.778839,116.650887 455.724884,120.925507 459.879059,123.285416 
	C464.164673,125.719986 467.368103,122.466225 470.948730,120.095871 
	C480.776154,113.590187 480.025269,103.548149 480.594299,93.888718 
	C480.813568,90.167564 481.017365,86.637260 485.886871,86.554680 
	C489.882721,86.486916 491.962677,89.478302 491.348816,94.815437 
	C490.690552,100.538467 489.600677,106.211853 489.701447,112.366974 
	C492.406738,107.787048 495.112061,103.207115 498.340332,98.285194 
	C499.532806,96.876762 500.202271,95.810326 500.871765,94.743896 
	C501.674957,92.914574 502.478149,91.085266 503.922180,89.095016 
	C505.009491,88.245941 505.455994,87.557800 505.902466,86.869659 
	C505.902496,86.869667 505.976593,86.975250 506.351624,86.929260 
	C509.379822,86.448616 512.033020,86.013962 514.686218,85.579300 
	C515.770935,86.464745 516.855591,87.350182 517.964478,88.894402 
	C518.481201,90.724792 518.973633,91.896408 519.466125,93.068024 
	C519.589844,93.506660 519.713501,93.945297 519.543823,95.042007 
	C519.873291,102.810715 520.496155,109.921349 521.118958,117.031982 
	C521.317871,117.306976 521.414673,117.614159 521.248108,118.560806 
	C521.583191,120.160561 522.079590,121.153038 522.575928,122.145508 
	C522.575928,122.145515 522.839417,122.274529 522.921997,122.696335 
	C523.986206,122.703445 524.967773,122.288750 525.949341,121.874039 
M458.381561,94.975563 
	C458.172028,95.231270 457.848328,95.456543 457.770813,95.747437 
	C457.056549,98.428246 456.384857,101.120399 455.700775,103.809242 
	C458.313690,102.673325 461.080292,101.794052 463.504028,100.342285 
	C467.293823,98.072281 469.626648,94.979462 467.051910,89.475845 
	C464.139771,91.253342 461.522369,92.850937 458.381561,94.975563 
z"/>
<path fill="#2D2828" opacity="1.000000" stroke="none" 
	d="
M364.218048,125.922470 
	C364.005371,125.637291 363.792694,125.352112 363.702515,124.470863 
	C363.336639,123.214806 362.848297,122.554810 362.359924,121.894821 
	C362.131256,120.635605 361.902588,119.376389 361.808929,117.332550 
	C361.545105,114.647911 361.146271,112.747902 360.747406,110.847885 
	C360.645355,106.572083 360.543274,102.296280 360.902252,97.391495 
	C361.626953,93.032310 361.890594,89.302116 362.154236,85.571915 
	C363.154633,85.429840 364.155060,85.287773 365.622070,85.589706 
	C367.101257,86.315636 368.113800,86.597572 369.126343,86.879509 
	C369.126343,86.879509 369.031677,87.009850 369.070129,87.281494 
	C369.739807,88.702225 370.371094,89.851326 371.002380,91.000412 
	C371.189789,99.873764 371.377228,108.747108 371.350647,118.397980 
	C371.609131,120.157524 372.081604,121.139542 372.554047,122.121567 
	C372.859436,122.686806 373.164825,123.252045 373.755554,124.382172 
	C375.391510,124.729179 376.742096,124.511307 378.092682,124.293427 
	C378.343933,124.023293 378.595215,123.753166 379.384735,123.234329 
	C380.773132,121.471306 381.623291,119.956993 382.473450,118.442688 
	C383.968445,113.886513 385.463409,109.330338 387.412476,104.395157 
	C387.993042,103.026024 388.119507,102.035881 388.245972,101.045731 
	C388.335480,100.619865 388.425018,100.194000 388.942566,99.289337 
	C389.531708,97.470390 389.692810,96.130234 389.853943,94.790077 
	C391.686646,89.948708 392.066040,89.684738 394.568878,91.993057 
	C394.469391,96.421944 394.620880,100.192566 394.772339,103.963188 
	C394.906647,112.211143 395.040955,120.459091 395.566833,129.337280 
	C396.064331,130.771439 396.170197,131.575363 396.276062,132.379303 
	C395.736603,133.326889 395.197144,134.274460 394.207855,135.710663 
	C393.646210,143.298264 393.534363,150.397247 393.422516,157.496216 
	C393.246399,158.729462 393.070282,159.962692 392.392975,161.626831 
	C391.312592,164.111725 390.733337,166.165695 390.154114,168.219681 
	C385.538513,178.117828 375.586914,179.866028 368.648224,177.252136 
	C362.224396,174.832214 357.931030,164.528885 361.170441,157.847931 
	C363.056854,153.957458 367.002655,150.982544 370.293304,147.884018 
	C372.630249,145.683517 375.420746,143.964676 378.659882,141.957855 
	C379.879150,141.269699 380.447357,140.654526 381.015564,140.039368 
	C382.917664,138.512665 384.819794,136.985962 387.391815,135.183395 
	C388.201355,131.418381 388.340973,127.929230 388.480591,124.440079 
	C388.484436,123.338982 388.488281,122.237892 388.662109,120.486221 
	C388.561951,119.366798 388.291870,118.897942 388.021759,118.429092 
	C387.670197,118.932938 387.318634,119.436775 386.967072,119.940620 
	C386.952423,120.110352 386.937775,120.280090 386.460083,120.736588 
	C385.183167,122.539398 384.369293,124.055458 383.555389,125.571518 
	C381.570953,127.278511 379.586487,128.985504 377.051392,130.470261 
	C374.343231,130.449570 372.185699,130.651138 370.028198,130.852707 
	C369.103210,130.446899 368.178253,130.041092 367.107269,129.037323 
	C366.046875,127.600410 365.132446,126.761436 364.218048,125.922470 
M386.738647,140.608551 
	C380.979523,145.156326 374.878296,149.343658 369.578003,154.374817 
	C365.859589,157.904449 367.624115,163.660355 372.288910,165.860703 
	C377.128876,168.143661 382.058228,165.414658 383.818970,159.131378 
	C385.205658,154.183121 386.159698,149.113617 387.914917,143.966461 
	C387.694946,142.947098 387.474945,141.927734 386.738647,140.608551 
z"/>
<path fill="#2E2929" opacity="1.000000" stroke="none" 
	d="
M251.989258,127.642128 
	C251.989258,127.642128 251.831573,128.069794 251.238892,128.065903 
	C249.090851,128.830978 247.535477,129.599945 245.980118,130.368912 
	C243.514633,130.330643 241.049149,130.292358 238.222305,129.645996 
	C237.140182,128.771881 236.419418,128.505829 235.698654,128.239761 
	C235.698654,128.239761 235.873383,128.145020 235.861572,127.884277 
	C235.271149,127.081299 234.692551,126.539062 234.113953,125.996826 
	C234.113953,125.996826 233.809891,125.713661 233.859299,125.126114 
	C233.073715,123.750488 232.238724,122.962410 231.403717,122.174339 
	C230.982880,122.916122 230.562042,123.657898 230.141205,124.399673 
	C230.208176,124.727821 230.092972,124.968941 229.251770,125.107224 
	C228.135742,125.624931 227.563522,126.158447 226.991302,126.691963 
	C226.991302,126.691963 226.780106,127.094063 226.198883,127.091278 
	C224.070450,128.183990 222.523224,129.279480 220.975998,130.374954 
	C220.512527,130.531555 220.049042,130.688141 218.923218,130.522705 
	C214.992172,129.528564 211.723480,128.856461 208.454803,128.184357 
	C207.608261,127.433792 206.761703,126.683220 205.908386,125.243073 
	C205.949356,120.331474 202.373596,119.237076 199.697723,117.365944 
	C200.143127,115.789337 200.588531,114.212730 201.570206,112.205910 
	C202.318161,110.616066 202.529846,109.456436 202.741547,108.296806 
	C202.542282,108.001724 202.518951,107.693344 203.153687,107.022385 
	C204.374420,104.306877 205.112991,101.940643 205.851578,99.574402 
	C206.260757,98.878685 206.669937,98.182961 207.556732,97.178070 
	C208.336151,96.213104 208.637970,95.557312 208.939774,94.901512 
	C208.939774,94.901512 208.982880,94.982452 209.298050,94.952820 
	C212.078110,93.044678 214.542999,91.166153 217.007889,89.287628 
	C219.015442,88.870743 221.083298,88.629471 223.007126,87.968788 
	C224.099075,87.593796 224.955109,86.531807 226.274521,85.087112 
	C226.006134,79.257050 225.380615,74.119087 224.755112,68.981125 
	C224.656967,67.904190 224.558823,66.827248 224.934372,65.220062 
	C226.210220,60.918720 227.012360,57.147636 227.814499,53.376553 
	C229.084946,52.122677 230.355408,50.868801 232.428131,49.751152 
	C238.297302,48.769409 242.038376,51.780273 246.033905,53.998756 
	C246.346512,54.175758 246.499771,54.443897 246.299713,55.553169 
	C246.143631,58.429562 246.181534,60.555958 246.219421,62.682350 
	C246.246185,63.576286 246.272949,64.470222 245.830719,65.681206 
	C244.910461,66.001480 244.459198,66.004700 244.003967,66.003960 
	C244.000000,66.000000 243.992065,65.992371 243.994385,65.603287 
	C243.651108,63.804646 243.305496,62.395092 242.897827,60.608696 
	C242.253937,58.373226 241.672089,56.514603 241.014984,54.382462 
	C240.272247,54.130707 239.604797,54.152473 238.612823,54.263832 
	C236.954346,56.197933 235.620407,58.042442 233.955597,60.129635 
	C233.317764,63.042217 231.318787,66.001297 235.089600,68.443100 
	C235.827164,76.944595 236.403839,85.004761 237.048187,93.430077 
	C237.623169,96.069832 238.276993,98.324532 238.589462,100.625587 
	C238.822174,102.339424 238.613113,104.113266 238.600784,105.860382 
	C238.596725,106.350807 238.592651,106.841240 238.116913,107.799522 
	C234.691772,111.650108 236.513931,114.825577 238.068207,118.012665 
	C238.314377,118.765068 238.560562,119.517471 238.609375,120.847656 
	C238.903122,121.951385 239.394257,122.477333 239.885376,123.003281 
	C240.152191,123.282661 240.419022,123.562050 240.950409,124.439621 
	C244.884415,126.685295 248.251495,126.661949 251.008209,123.265671 
	C251.298981,123.087021 251.589737,122.908371 252.519745,122.810959 
	C254.439346,123.262070 255.719666,123.631935 257.000000,124.001801 
	C256.237793,124.657814 255.475586,125.313812 254.106476,126.011917 
	C252.996124,126.583389 252.492691,127.112755 251.989258,127.642128 
M215.840958,120.975830 
	C220.998901,121.903358 224.473816,119.865807 227.082092,114.754349 
	C227.388245,110.723824 227.869812,106.695114 227.911804,102.661842 
	C227.927979,101.108673 226.944275,99.545097 226.094635,97.173477 
	C225.962051,95.566986 225.829468,93.960495 225.627579,91.514191 
	C223.290634,92.048172 220.992874,92.002342 219.449799,93.058815 
	C217.100937,94.667000 215.274872,97.038773 212.445679,99.138870 
	C211.798737,101.051933 211.151810,102.965004 210.569427,105.576958 
	C210.348694,106.717224 210.127945,107.857483 209.209106,109.138329 
	C207.317734,111.022911 207.116882,112.695511 210.134048,114.613983 
	C211.124176,116.318108 212.114304,118.022232 213.082062,120.345360 
	C213.715546,120.580780 214.349014,120.816193 215.840958,120.975830 
z"/>
<path fill="#2A2525" opacity="1.000000" stroke="none" 
	d="
M63.227058,47.968330 
	C63.224827,51.679646 63.222591,55.390957 62.904907,59.834496 
	C62.477783,68.081207 62.366112,75.595695 62.254436,83.110184 
	C62.158226,84.466812 62.062019,85.823448 61.753700,87.905647 
	C61.228668,93.819252 60.915749,99.007278 60.602829,104.195312 
	C60.400433,107.161369 60.198036,110.127419 59.657181,113.816254 
	C59.546093,117.546738 59.773468,120.554443 59.957069,123.897156 
	C60.604111,125.820122 61.294926,127.408081 61.985744,128.996048 
	C58.875095,137.515396 55.786892,138.993347 50.017868,133.931213 
	C49.537369,130.118561 49.128582,126.975533 49.121113,123.831543 
	C49.065830,100.567184 49.121037,77.302521 49.037258,54.038326 
	C49.029804,51.968433 48.281807,49.901215 47.877747,47.832756 
	C49.586563,46.769970 51.295380,45.707188 53.846722,44.662106 
	C56.520702,44.627014 58.352154,44.574219 60.183609,44.521427 
	C60.620907,44.908543 61.058201,45.295654 61.747066,46.163925 
	C62.408112,47.086163 62.817585,47.527245 63.227058,47.968330 
z"/>
<path fill="#2E2A2A" opacity="1.000000" stroke="none" 
	d="
M315.076691,113.166534 
	C312.490326,118.185234 310.194702,123.389061 307.174835,128.131744 
	C305.961975,130.036560 303.024170,132.146103 301.116974,131.935791 
	C299.244812,131.729324 296.742096,128.960052 296.153870,126.857307 
	C293.881470,118.734467 292.307037,110.418243 290.362518,102.200111 
	C290.008728,100.704834 289.139618,99.331505 288.508392,97.901871 
	C287.068665,99.060463 285.434296,100.051567 284.248840,101.428986 
	C283.244537,102.595909 282.759308,104.209572 281.816986,106.075890 
	C281.141876,105.190552 280.091309,104.335007 280.242981,103.932419 
	C282.133331,98.915115 284.037811,93.890236 286.266541,89.017265 
	C288.203644,84.781914 291.669891,82.558090 296.379303,83.866615 
	C300.679230,85.061363 301.921295,88.871994 302.303314,92.780342 
	C303.046967,100.388618 303.442810,108.030746 304.174042,115.640480 
	C304.364288,117.620178 305.260712,119.532028 305.832764,121.475044 
	C306.545441,121.600143 307.258118,121.725243 307.970795,121.850349 
	C309.643768,117.778702 311.316742,113.707062 313.484833,109.155472 
	C314.958221,108.453453 315.936523,108.231384 316.914825,108.009315 
	C316.690460,108.801987 316.466064,109.594666 315.854095,110.888031 
	C315.336548,111.981331 315.206635,112.573936 315.076691,113.166534 
z"/>
<path fill="#2E2929" opacity="1.000000" stroke="none" 
	d="
M271.246094,132.701477 
	C271.246094,132.701477 271.284943,132.872650 270.840820,132.992981 
	C268.131134,133.789902 265.865631,134.466507 263.600098,135.143112 
	C263.600098,135.143112 263.198883,135.154587 263.095459,134.570084 
	C262.217957,129.212250 261.443848,124.438927 260.452301,118.324814 
	C260.787506,116.309067 261.840332,112.644615 261.925446,108.957825 
	C262.163818,98.633751 262.002441,88.300446 261.998810,77.970787 
	C261.998810,77.970787 262.097870,77.783531 262.726135,77.843185 
	C266.155304,77.833618 268.956238,77.764389 271.757141,77.695152 
	C271.757141,77.695152 271.899475,77.685425 271.951904,78.207321 
	C272.261292,83.461906 272.518280,88.194603 272.775269,92.927299 
	C272.733521,96.579613 272.691772,100.231926 272.277039,104.479675 
	C271.763367,107.693832 271.622711,110.312561 271.482025,112.931290 
	C271.397095,114.647865 271.312134,116.364433 270.904602,118.691185 
	C270.411407,120.707092 270.240814,122.112831 270.070221,123.518562 
	C270.517456,123.672768 270.964661,123.826981 271.411896,123.981186 
	C272.244171,121.959656 273.076416,119.938126 273.908691,117.916595 
	C275.518677,114.202805 277.128632,110.488998 278.738586,106.775200 
	C279.384369,107.041168 280.030151,107.307129 280.675934,107.573097 
	C278.536926,113.510834 276.397919,119.448570 273.662170,125.778351 
	C272.459045,128.347427 271.852570,130.524445 271.246094,132.701477 
z"/>
<path fill="#332F2F" opacity="1.000000" stroke="none" 
	d="
M324.676575,78.310158 
	C324.676575,78.310158 324.690582,78.100883 325.105713,78.092697 
	C325.733032,79.852829 325.945190,81.621162 326.157318,83.389488 
	C326.276794,84.435860 326.396271,85.482231 326.938293,87.087402 
	C328.803619,87.993828 330.246368,88.341469 331.689117,88.689102 
	C333.472870,90.511665 335.256622,92.334221 337.056641,94.832550 
	C338.357483,97.539200 339.333832,97.386627 340.008026,95.093948 
	C340.008026,95.093948 340.138641,94.791496 340.669617,94.843086 
	C342.476562,94.050163 343.752502,93.205658 345.028442,92.361145 
	C345.871490,92.050636 346.714569,91.740128 348.390625,91.642090 
	C351.827209,91.901749 354.430817,91.948929 357.034393,91.996109 
	C357.119934,92.176292 357.205444,92.356476 356.831451,92.773026 
	C355.900604,93.459282 355.429291,93.909172 354.957977,94.359062 
	C353.685577,94.959694 352.413147,95.560326 350.441620,96.125969 
	C349.138458,96.655807 348.534424,97.220634 347.930420,97.785461 
	C346.907990,98.986450 345.885590,100.187439 344.386292,101.750893 
	C343.620361,102.776405 343.331360,103.439453 343.042328,104.102501 
	C343.042328,104.102501 343.020813,104.600777 342.543030,104.854324 
	C341.978027,106.384430 341.890778,107.660973 341.803528,108.937523 
	C341.733948,113.327637 341.664337,117.717743 341.099121,122.712967 
	C340.432373,125.587334 340.261261,127.856590 340.090149,130.125839 
	C340.090149,130.125839 340.019623,130.037750 339.582520,130.030228 
	C337.511627,130.143906 335.877838,130.265091 334.244049,130.386261 
	C333.828979,130.159698 333.413910,129.933121 332.989075,129.025513 
	C332.289001,124.219955 331.598694,120.095428 330.908386,115.970894 
	C330.750916,109.486313 330.593445,103.001732 330.641541,95.739601 
	C330.286835,94.303574 329.726501,93.645088 329.166199,92.986610 
	C328.777313,92.642075 328.388428,92.297531 327.881775,91.356415 
	C326.166412,88.359711 324.994995,88.857109 324.109283,91.297295 
	C323.744720,92.022980 323.380157,92.748657 322.482330,93.834709 
	C321.688873,95.604713 321.428680,97.014343 321.168488,98.423981 
	C321.168488,98.423981 321.230347,98.763992 320.760803,99.061127 
	C319.969238,100.806282 319.647247,102.254318 319.325226,103.702347 
	C318.810852,104.772362 318.296478,105.842369 317.182220,106.787415 
	C316.639435,104.570442 316.696503,102.478439 316.753540,100.386429 
	C316.796204,100.045197 316.838867,99.703972 317.434021,99.102699 
	C318.564789,96.673431 319.143066,94.504211 319.721313,92.334991 
	C319.748444,91.726990 319.775574,91.118988 320.341278,90.190109 
	C321.533661,87.784042 322.187500,85.698837 322.841309,83.613632 
	C322.916626,82.943733 322.991974,82.273834 323.581604,81.211334 
	C324.289429,79.982552 324.483002,79.146355 324.676575,78.310158 
z"/>
<path fill="#B6B5B5" opacity="1.000000" stroke="none" 
	d="
M47.655663,48.114758 
	C48.281807,49.901215 49.029804,51.968433 49.037258,54.038326 
	C49.121037,77.302521 49.065830,100.567184 49.121113,123.831543 
	C49.128582,126.975533 49.537369,130.118561 49.748650,133.692993 
	C48.897732,131.783127 47.370762,129.453583 47.332237,127.099670 
	C47.103455,113.119507 47.191601,99.133636 47.227600,85.149826 
	C47.259140,72.898705 47.362144,60.647778 47.655663,48.114758 
z"/>
<path fill="#332F2F" opacity="1.000000" stroke="none" 
	d="
M261.641113,78.102547 
	C262.002441,88.300446 262.163818,98.633751 261.925446,108.957825 
	C261.840332,112.644615 260.787506,116.309067 260.452301,118.324814 
	C261.443848,124.438927 262.217957,129.212250 263.000488,134.393311 
	C262.190125,131.838104 261.281464,128.895981 260.588501,125.903877 
	C260.214142,124.287521 260.966003,121.616013 257.405640,123.886200 
	C255.719666,123.631935 254.439346,123.262070 252.780853,122.854134 
	C259.382843,119.036613 261.204712,113.206039 260.737976,105.457222 
	C260.194000,96.426628 261.040344,87.312302 261.641113,78.102547 
z"/>
<path fill="#454141" opacity="1.000000" stroke="none" 
	d="
M62.266354,128.797348 
	C61.294926,127.408081 60.604111,125.820122 60.086380,123.541763 
	C61.210758,120.597557 62.162052,118.343742 63.113350,116.089928 
	C64.162247,113.485970 64.956360,110.733055 66.358101,108.335381 
	C67.165199,106.954842 68.955383,106.149033 70.303055,105.084526 
	C70.625832,105.446289 70.948608,105.808052 71.271385,106.169807 
	C68.363243,113.646088 65.455101,121.122368 62.266354,128.797348 
z"/>
<path fill="#332F2F" opacity="1.000000" stroke="none" 
	d="
M238.861664,105.589539 
	C238.613113,104.113266 238.822174,102.339424 238.589462,100.625587 
	C238.276993,98.324532 237.623169,96.069832 237.435425,93.298805 
	C238.521240,89.539230 239.287491,86.276085 240.308319,83.215637 
	C241.371048,84.278679 242.179199,85.139030 242.987366,85.999390 
	C241.699097,92.439163 240.410828,98.878929 238.861664,105.589539 
z"/>
<path fill="#332F2F" opacity="1.000000" stroke="none" 
	d="
M199.449417,117.607437 
	C202.373596,119.237076 205.949356,120.331474 205.887024,124.952461 
	C204.744095,123.837692 203.615753,122.323959 202.209671,120.437599 
	C200.211456,122.888420 198.490158,124.999603 196.458405,127.269531 
	C195.798386,126.232521 195.448822,125.036766 195.060913,123.469086 
	C196.415405,121.347755 197.808258,119.598351 199.449417,117.607437 
z"/>
<path fill="#2E2929" opacity="1.000000" stroke="none" 
	d="
M243.129120,85.734497 
	C242.179199,85.139030 241.371048,84.278679 240.322372,82.874664 
	C240.175980,81.891357 240.270111,81.451729 240.665833,80.938911 
	C240.946289,79.898705 240.925156,78.931671 240.847961,77.537048 
	C241.251083,73.408623 241.710251,69.707809 242.473267,66.009598 
	C243.182114,66.005592 243.587082,65.998985 243.992065,65.992371 
	C243.992065,65.992371 244.000000,66.000000 244.002716,66.415810 
	C244.289978,68.871399 244.574539,70.911179 244.859085,72.950958 
	C244.820480,74.037392 244.781876,75.123817 244.260056,76.750198 
	C243.603134,79.431358 243.429428,81.572563 243.255722,83.713768 
	C243.260788,84.299049 243.265839,84.884331 243.129120,85.734497 
z"/>
<path fill="#B6B5B5" opacity="1.000000" stroke="none" 
	d="
M62.618614,82.976669 
	C62.366112,75.595695 62.477783,68.081207 62.909912,60.297325 
	C63.147842,67.633003 63.065315,75.238075 62.618614,82.976669 
z"/>
<path fill="#4B4747" opacity="1.000000" stroke="none" 
	d="
M521.212830,116.652878 
	C520.496155,109.921349 519.873291,102.810715 519.506714,95.384819 
	C520.277527,102.137634 520.792114,109.205704 521.212830,116.652878 
z"/>
<path fill="#646060" opacity="1.000000" stroke="none" 
	d="
M393.739868,157.258041 
	C393.534363,150.397247 393.646210,143.298264 394.095032,136.024109 
	C394.307068,142.905899 394.182129,149.962891 393.739868,157.258041 
z"/>
<path fill="#332F2F" opacity="1.000000" stroke="none" 
	d="
M191.388641,105.572876 
	C190.535294,102.329681 189.711166,98.657654 189.030563,94.959213 
	C188.621429,92.736023 188.436020,90.471657 188.188034,87.769516 
	C189.310089,93.253120 190.394180,99.193016 191.388641,105.572876 
z"/>
<path fill="#332F2F" opacity="1.000000" stroke="none" 
	d="
M224.662918,69.421272 
	C225.380615,74.119087 226.006134,79.257050 226.355164,84.682648 
	C225.576035,79.933998 225.073380,74.897705 224.662918,69.421272 
z"/>
<path fill="#332F2F" opacity="1.000000" stroke="none" 
	d="
M171.527374,102.395172 
	C172.522690,100.671005 173.839737,98.683411 175.156769,96.695808 
	C175.863907,96.793884 176.571045,96.891960 177.278183,96.990028 
	C178.071472,100.467934 178.864746,103.945839 179.409409,107.681168 
	C178.422089,105.099174 177.683411,102.259773 176.708298,98.511581 
	C174.789108,99.941391 173.319092,101.036560 171.527374,102.395172 
z"/>
<path fill="#B6B5B5" opacity="1.000000" stroke="none" 
	d="
M60.925831,104.000603 
	C60.915749,99.007278 61.228668,93.819252 61.766296,88.315231 
	C61.743610,93.268135 61.496220,98.537010 60.925831,104.000603 
z"/>
<path fill="#332F2F" opacity="1.000000" stroke="none" 
	d="
M272.956604,92.570328 
	C272.518280,88.194603 272.261292,83.461906 272.010864,78.247482 
	C272.608673,80.129417 273.518250,82.468628 273.702301,84.863594 
	C273.888336,87.284760 273.355743,89.761154 272.956604,92.570328 
z"/>
<path fill="#332F2F" opacity="1.000000" stroke="none" 
	d="
M246.038849,53.646439 
	C242.038376,51.780273 238.297302,48.769409 232.743973,49.803406 
	C237.729141,47.214672 241.284988,48.136684 246.038849,53.646439 
z"/>
<path fill="#413D3D" opacity="1.000000" stroke="none" 
	d="
M330.821655,116.346237 
	C331.598694,120.095428 332.289001,124.219955 332.942505,128.781952 
	C332.182129,125.053474 331.458527,120.887527 330.821655,116.346237 
z"/>
<path fill="#B6B5B5" opacity="1.000000" stroke="none" 
	d="
M62.763859,116.092865 
	C62.162052,118.343742 61.210758,120.597557 60.130154,123.206757 
	C59.773468,120.554443 59.546093,117.546738 59.620903,114.266098 
	C60.753517,114.694046 61.583942,115.394928 62.763859,116.092865 
z"/>
<path fill="#646060" opacity="1.000000" stroke="none" 
	d="
M394.991241,103.633118 
	C394.620880,100.192566 394.469391,96.421944 394.573761,92.342789 
	C394.956482,95.790520 395.083313,99.546783 394.991241,103.633118 
z"/>
<path fill="#605D5D" opacity="1.000000" stroke="none" 
	d="
M361.798035,85.564125 
	C361.890594,89.302116 361.626953,93.032310 361.054565,96.961548 
	C360.977844,93.292503 361.209839,89.424423 361.798035,85.564125 
z"/>
<path fill="#332F2F" opacity="1.000000" stroke="none" 
	d="
M238.171875,117.627075 
	C236.513931,114.825577 234.691772,111.650108 237.930969,108.124283 
	C238.236313,111.067947 238.255936,114.154709 238.171875,117.627075 
z"/>
<path fill="#332F2F" opacity="1.000000" stroke="none" 
	d="
M227.541016,53.634933 
	C227.012360,57.147636 226.210220,60.918720 225.122681,64.853577 
	C225.647385,61.309338 226.457458,57.601326 227.541016,53.634933 
z"/>
<path fill="#4B4747" opacity="1.000000" stroke="none" 
	d="
M533.664917,114.468483 
	C533.077087,113.871223 532.703674,113.059860 532.171082,111.902679 
	C531.321411,113.157631 530.732300,114.027687 529.823669,114.984344 
	C530.008606,113.461632 530.513062,111.852310 531.703857,110.094727 
	C533.245422,109.967720 534.100647,109.988968 534.955872,110.010216 
	C534.596985,111.424934 534.238159,112.839661 533.664917,114.468483 
z"/>
<path fill="#605D5D" opacity="1.000000" stroke="none" 
	d="
M388.247864,124.741714 
	C388.340973,127.929230 388.201355,131.418381 387.674713,135.001648 
	C387.530182,131.744965 387.772675,128.394150 388.247864,124.741714 
z"/>
<path fill="#332F2F" opacity="1.000000" stroke="none" 
	d="
M208.577545,128.535660 
	C211.723480,128.856461 214.992172,129.528564 218.558197,130.412811 
	C215.470459,130.045624 212.085373,129.466293 208.577545,128.535660 
z"/>
<path fill="#332F2F" opacity="1.000000" stroke="none" 
	d="
M250.604279,123.326035 
	C248.251495,126.661949 244.884415,126.685295 241.103088,124.686295 
	C244.060898,124.018654 247.130615,123.702530 250.604279,123.326035 
z"/>
<path fill="#332F2F" opacity="1.000000" stroke="none" 
	d="
M216.664368,89.307991 
	C214.542999,91.166153 212.078110,93.044678 209.257385,94.931641 
	C211.374649,93.069511 213.847733,91.198936 216.664368,89.307991 
z"/>
<path fill="#332F2F" opacity="1.000000" stroke="none" 
	d="
M245.097778,72.709747 
	C244.574539,70.911179 244.289978,68.871399 244.006683,66.419769 
	C244.459198,66.004700 244.910461,66.001480 245.700226,65.994141 
	C245.804642,68.149529 245.570541,70.309029 245.097778,72.709747 
z"/>
<path fill="#413D3D" opacity="1.000000" stroke="none" 
	d="
M316.482849,100.626984 
	C316.696503,102.478439 316.639435,104.570442 316.896301,106.888123 
	C317.210205,107.113785 317.126221,107.582573 317.020508,107.795944 
	C315.936523,108.231384 314.958221,108.453453 313.705444,108.819687 
	C314.358002,106.265076 315.285065,103.566307 316.482849,100.626984 
z"/>
<path fill="#413D3D" opacity="1.000000" stroke="none" 
	d="
M356.993713,91.610680 
	C354.430817,91.948929 351.827209,91.901749 348.729797,91.730576 
	C351.141663,91.479477 354.047333,91.352364 356.993713,91.610680 
z"/>
<path fill="#858282" opacity="1.000000" stroke="none" 
	d="
M271.808350,112.690369 
	C271.622711,110.312561 271.763367,107.693832 272.231201,104.925308 
	C272.417114,107.333496 272.275879,109.891479 271.808350,112.690369 
z"/>
<path fill="#332F2F" opacity="1.000000" stroke="none" 
	d="
M263.778564,135.463593 
	C265.865631,134.466507 268.131134,133.789902 270.784180,133.060013 
	C269.868256,136.793686 267.522827,137.873871 263.778564,135.463593 
z"/>
<path fill="#9A9898" opacity="1.000000" stroke="none" 
	d="
M162.080780,109.540726 
	C161.713333,111.124092 161.028275,112.541328 160.343216,113.958565 
	C159.845062,113.785713 159.346909,113.612862 158.848755,113.440002 
	C159.079529,111.783897 159.310303,110.127785 159.842255,108.233536 
	C160.683334,108.455132 161.223267,108.914856 162.080780,109.540726 
z"/>
<path fill="#302B2B" opacity="1.000000" stroke="none" 
	d="
M535.077515,109.650490 
	C534.100647,109.988968 533.245422,109.967720 531.961853,109.925995 
	C531.978577,108.512856 532.423706,107.120201 533.333130,105.363022 
	C534.470581,105.008965 535.143738,105.019440 535.816895,105.029907 
	C535.610962,106.450195 535.405029,107.870476 535.077515,109.650490 
z"/>
<path fill="#332F2F" opacity="1.000000" stroke="none" 
	d="
M271.492615,77.389832 
	C268.956238,77.764389 266.155304,77.833618 262.831482,77.832054 
	C265.281708,77.535675 268.254913,77.310097 271.492615,77.389832 
z"/>
<path fill="#4B4747" opacity="1.000000" stroke="none" 
	d="
M514.407471,85.339569 
	C512.033020,86.013962 509.379822,86.448616 506.298279,86.893021 
	C508.622833,86.301788 511.375793,85.700813 514.407471,85.339569 
z"/>
<path fill="#413D3D" opacity="1.000000" stroke="none" 
	d="
M326.437561,83.154167 
	C325.945190,81.621162 325.733032,79.852829 325.190887,78.031494 
	C325.610870,77.297447 326.360840,76.616402 327.110809,75.935356 
	C327.432648,76.108276 327.754486,76.281197 328.076324,76.454117 
	C327.623474,78.609032 327.170654,80.763939 326.437561,83.154167 
z"/>
<path fill="#858282" opacity="1.000000" stroke="none" 
	d="
M273.593201,118.167870 
	C273.076416,119.938126 272.244171,121.959656 271.411896,123.981186 
	C270.964661,123.826981 270.517456,123.672768 270.070221,123.518562 
	C270.240814,122.112831 270.411407,120.707092 270.828461,119.112381 
	C271.809174,118.755310 272.543457,118.587227 273.593201,118.167870 
z"/>
<path fill="#332F2F" opacity="1.000000" stroke="none" 
	d="
M192.926056,120.594902 
	C192.325653,118.904961 191.780502,116.808846 191.453156,114.420654 
	C192.107742,116.148628 192.544510,118.168678 192.926056,120.594902 
z"/>
<path fill="#413D3D" opacity="1.000000" stroke="none" 
	d="
M340.412781,129.967468 
	C340.261261,127.856590 340.432373,125.587334 340.908569,123.137985 
	C341.054260,125.241615 340.894836,127.525345 340.412781,129.967468 
z"/>
<path fill="#332F2F" opacity="1.000000" stroke="none" 
	d="
M205.547806,99.738098 
	C205.112991,101.940643 204.374420,104.306877 203.310333,106.839226 
	C203.737900,104.637489 204.490967,102.269638 205.547806,99.738098 
z"/>
<path fill="#605D5D" opacity="1.000000" stroke="none" 
	d="
M370.235046,131.178482 
	C372.185699,130.651138 374.343231,130.449570 376.716827,130.466888 
	C374.769226,130.958588 372.605560,131.231430 370.235046,131.178482 
z"/>
<path fill="#B6B5B5" opacity="1.000000" stroke="none" 
	d="
M60.071854,44.195065 
	C58.352154,44.574219 56.520702,44.627014 54.248314,44.553688 
	C55.858284,44.241280 57.909191,44.054993 60.071854,44.195065 
z"/>
<path fill="#332F2F" opacity="1.000000" stroke="none" 
	d="
M246.476196,62.422554 
	C246.181534,60.555958 246.143631,58.429562 246.200607,55.773918 
	C246.441299,57.550701 246.587143,59.856728 246.476196,62.422554 
z"/>
<path fill="#605D5D" opacity="1.000000" stroke="none" 
	d="
M360.582153,111.222260 
	C361.146271,112.747902 361.545105,114.647911 361.850739,116.947861 
	C361.310638,115.430733 360.863739,113.513680 360.582153,111.222260 
z"/>
<path fill="#332F2F" opacity="1.000000" stroke="none" 
	d="
M243.533752,83.448471 
	C243.429428,81.572563 243.603134,79.431358 244.125473,77.136810 
	C244.253342,79.050034 244.032578,81.116608 243.533752,83.448471 
z"/>
<path fill="#332F2F" opacity="1.000000" stroke="none" 
	d="
M246.318268,130.422607 
	C247.535477,129.599945 249.090851,128.830978 251.013519,128.099854 
	C249.806046,128.917252 248.231232,129.696777 246.318268,130.422607 
z"/>
<path fill="#646060" opacity="1.000000" stroke="none" 
	d="
M390.463989,168.055450 
	C390.733337,166.165695 391.312592,164.111725 392.226562,161.962646 
	C391.965485,163.875427 391.369659,165.883316 390.463989,168.055450 
z"/>
<path fill="#332F2F" opacity="1.000000" stroke="none" 
	d="
M271.524109,132.459778 
	C271.852570,130.524445 272.459045,128.347427 273.419739,126.082626 
	C273.116699,128.069260 272.459442,130.143661 271.524109,132.459778 
z"/>
<path fill="#332F2F" opacity="1.000000" stroke="none" 
	d="
M221.298553,130.422256 
	C222.523224,129.279480 224.070450,128.183990 225.972229,127.105408 
	C224.758240,128.238068 223.189682,129.353806 221.298553,130.422256 
z"/>
<path fill="#413D3D" opacity="1.000000" stroke="none" 
	d="
M322.557800,83.818512 
	C322.187500,85.698837 321.533661,87.784042 320.526245,89.941772 
	C320.873199,88.017326 321.573761,86.020355 322.557800,83.818512 
z"/>
<path fill="#413D3D" opacity="1.000000" stroke="none" 
	d="
M319.458862,92.587135 
	C319.143066,94.504211 318.564789,96.673431 317.636353,98.932190 
	C317.922943,96.960907 318.559692,94.900093 319.458862,92.587135 
z"/>
<path fill="#413D3D" opacity="1.000000" stroke="none" 
	d="
M334.467712,130.686020 
	C335.877838,130.265091 337.511627,130.143906 339.634247,130.052765 
	C338.312531,130.383804 336.501953,130.684784 334.467712,130.686020 
z"/>
<path fill="#332F2F" opacity="1.000000" stroke="none" 
	d="
M180.836288,119.241013 
	C181.457397,120.182243 181.990860,121.389969 182.268631,122.796173 
	C181.591492,121.832268 181.170059,120.669891 180.836288,119.241013 
z"/>
<path fill="#605D5D" opacity="1.000000" stroke="none" 
	d="
M382.250305,118.678925 
	C381.623291,119.956993 380.773132,121.471306 379.572601,123.031189 
	C380.157227,121.689560 381.092224,120.302361 382.250305,118.678925 
z"/>
<path fill="#332F2F" opacity="1.000000" stroke="none" 
	d="
M230.486557,124.336006 
	C230.562042,123.657898 230.982880,122.916122 231.403717,122.174339 
	C232.238724,122.962410 233.073715,123.750488 233.897720,124.921951 
	C232.868454,124.961006 231.850189,124.616669 230.486557,124.336006 
z"/>
<path fill="#605D5D" opacity="1.000000" stroke="none" 
	d="
M383.780670,125.337669 
	C384.369293,124.055458 385.183167,122.539398 386.340485,120.962425 
	C385.791229,122.302284 384.898590,123.703049 383.780670,125.337669 
z"/>
<path fill="#605D5D" opacity="1.000000" stroke="none" 
	d="
M371.150269,90.755920 
	C370.371094,89.851326 369.739807,88.702225 369.109253,87.211792 
	C369.839355,88.084114 370.568756,89.297768 371.150269,90.755920 
z"/>
<path fill="#413D3D" opacity="1.000000" stroke="none" 
	d="
M321.407471,98.177551 
	C321.428680,97.014343 321.688873,95.604713 322.301697,94.084167 
	C322.318329,95.292542 321.982391,96.611824 321.407471,98.177551 
z"/>
<path fill="#4B4747" opacity="1.000000" stroke="none" 
	d="
M535.929932,104.736275 
	C535.143738,105.019440 534.470581,105.008965 533.460815,105.009842 
	C533.712402,104.286865 534.300598,103.552536 534.888855,102.818207 
	C535.273560,103.359688 535.658325,103.901161 535.929932,104.736275 
z"/>
<path fill="#413D3D" opacity="1.000000" stroke="none" 
	d="
M344.698730,92.387344 
	C343.752502,93.205658 342.476562,94.050163 340.834351,94.844521 
	C341.768402,94.000763 343.068695,93.207161 344.698730,92.387344 
z"/>
<path fill="#4B4747" opacity="1.000000" stroke="none" 
	d="
M519.560059,92.728592 
	C518.973633,91.896408 518.481201,90.724792 518.033569,89.196472 
	C518.603577,90.022903 519.128845,91.206032 519.560059,92.728592 
z"/>
<path fill="#605D5D" opacity="1.000000" stroke="none" 
	d="
M377.669861,124.297501 
	C376.742096,124.511307 375.391510,124.729179 373.973511,124.619385 
	C375.019745,124.294998 376.133392,124.298286 377.669861,124.297501 
z"/>
<path fill="#646060" opacity="1.000000" stroke="none" 
	d="
M396.601257,132.336777 
	C396.170197,131.575363 396.064331,130.771439 395.953979,129.561951 
	C396.228027,128.837875 396.506531,128.519363 397.205627,128.346497 
	C397.744995,128.657303 397.863831,128.822464 398.082397,129.276733 
	C398.534760,129.770401 398.887360,129.974945 399.239990,130.179489 
	C398.468811,130.884415 397.697632,131.589340 396.601257,132.336777 
z"/>
<path fill="#413D3D" opacity="1.000000" stroke="none" 
	d="
M342.055298,108.693848 
	C341.890778,107.660973 341.978027,106.384430 342.379089,105.042213 
	C342.564270,106.134422 342.435669,107.292290 342.055298,108.693848 
z"/>
<path fill="#646060" opacity="1.000000" stroke="none" 
	d="
M389.539124,94.941330 
	C389.692810,96.130234 389.531708,97.470390 389.078247,98.992020 
	C388.932007,97.813179 389.078156,96.452873 389.539124,94.941330 
z"/>
<path fill="#605D5D" opacity="1.000000" stroke="none" 
	d="
M364.284180,126.232895 
	C365.132446,126.761436 366.046875,127.600410 366.948090,128.773483 
	C366.073364,128.252838 365.211853,127.398079 364.284180,126.232895 
z"/>
<path fill="#413D3D" opacity="1.000000" stroke="none" 
	d="
M331.417969,88.437691 
	C330.246368,88.341469 328.803619,87.993828 327.179077,87.302162 
	C328.380463,87.367508 329.763672,87.776894 331.417969,88.437691 
z"/>
<path fill="#413D3D" opacity="1.000000" stroke="none" 
	d="
M319.574921,103.435089 
	C319.647247,102.254318 319.969238,100.806282 320.635315,99.179932 
	C320.594482,100.390350 320.209534,101.779091 319.574921,103.435089 
z"/>
<path fill="#4B4747" opacity="1.000000" stroke="none" 
	d="
M500.582916,94.882156 
	C500.202271,95.810326 499.532806,96.876762 498.520752,97.987152 
	C498.883423,97.027542 499.588745,96.023972 500.582916,94.882156 
z"/>
<path fill="#332F2F" opacity="1.000000" stroke="none" 
	d="
M168.370026,107.155807 
	C168.783646,106.271172 169.441635,105.184296 170.444183,104.046631 
	C170.063965,104.981750 169.339172,105.967651 168.370026,107.155807 
z"/>
<path fill="#4B4747" opacity="1.000000" stroke="none" 
	d="
M522.611328,121.807709 
	C522.079590,121.153038 521.583191,120.160561 521.195068,118.799881 
	C521.751160,119.444420 522.198914,120.457161 522.611328,121.807709 
z"/>
<path fill="#646060" opacity="1.000000" stroke="none" 
	d="
M387.944275,101.217575 
	C388.119507,102.035881 387.993042,103.026024 387.565857,104.053589 
	C387.390961,103.190483 387.516754,102.289940 387.944275,101.217575 
z"/>
<path fill="#605D5D" opacity="1.000000" stroke="none" 
	d="
M369.001892,86.582855 
	C368.113800,86.597572 367.101257,86.315636 365.988068,85.714500 
	C366.884094,85.692268 367.880798,85.989235 369.001892,86.582855 
z"/>
<path fill="#413D3D" opacity="1.000000" stroke="none" 
	d="
M324.482056,91.152672 
	C324.994995,88.857109 326.166412,88.359711 327.807068,91.103928 
	C326.851715,91.301361 325.853271,91.154701 324.482056,91.152672 
z"/>
<path fill="#332F2F" opacity="1.000000" stroke="none" 
	d="
M202.477234,108.517967 
	C202.529846,109.456436 202.318161,110.616066 201.755463,111.894470 
	C201.673935,110.921875 201.943420,109.830498 202.477234,108.517967 
z"/>
<path fill="#332F2F" opacity="1.000000" stroke="none" 
	d="
M179.424042,112.334343 
	C179.960098,112.991165 180.413345,113.993149 180.785736,115.375397 
	C180.250320,114.730278 179.795776,113.704895 179.424042,112.334343 
z"/>
<path fill="#413D3D" opacity="1.000000" stroke="none" 
	d="
M339.637543,95.084793 
	C339.333832,97.386627 338.357483,97.539200 337.074036,95.163414 
	C337.805786,94.904221 338.536407,94.989937 339.637543,95.084793 
z"/>
<path fill="#605D5D" opacity="1.000000" stroke="none" 
	d="
M372.640472,121.795654 
	C372.081604,121.139542 371.609131,120.157524 371.289001,118.830589 
	C371.869843,119.480370 372.298370,120.475067 372.640472,121.795654 
z"/>
<path fill="#4B4747" opacity="1.000000" stroke="none" 
	d="
M525.561523,121.997513 
	C524.967773,122.288750 523.986206,122.703445 522.909790,122.842506 
	C523.601135,122.418236 524.387451,122.269608 525.561523,121.997513 
z"/>
<path fill="#646060" opacity="1.000000" stroke="none" 
	d="
M399.622498,125.869644 
	C399.895935,126.713097 399.868164,127.564980 399.832031,128.849350 
	C399.823669,129.281830 399.779144,129.206528 399.315887,129.078339 
	C398.562622,128.962646 398.272644,128.975128 397.982635,128.987610 
	C397.863831,128.822464 397.744995,128.657303 397.496948,128.212021 
	C398.018890,127.247292 398.670105,126.562683 399.622498,125.869644 
z"/>
<path fill="#413D3D" opacity="1.000000" stroke="none" 
	d="
M324.429871,78.512573 
	C324.483002,79.146355 324.289429,79.982552 323.764099,80.925034 
	C323.682587,80.259209 323.932892,79.487099 324.429871,78.512573 
z"/>
<path fill="#332F2F" opacity="1.000000" stroke="none" 
	d="
M190.330231,131.844513 
	C190.680420,131.264786 191.363358,130.720810 192.420044,130.259216 
	C192.083511,130.854507 191.373245,131.367386 190.330231,131.844513 
z"/>
<path fill="#605D5D" opacity="1.000000" stroke="none" 
	d="
M380.703064,140.038574 
	C380.447357,140.654526 379.879150,141.269699 378.967529,141.806107 
	C379.212921,141.164154 379.801758,140.600967 380.703064,140.038574 
z"/>
<path fill="#413D3D" opacity="1.000000" stroke="none" 
	d="
M343.302124,103.991348 
	C343.331360,103.439453 343.620361,102.776405 344.190613,102.037048 
	C344.168518,102.600563 343.865204,103.240379 343.302124,103.991348 
z"/>
<path fill="#9A9898" opacity="1.000000" stroke="none" 
	d="
M160.775894,104.102768 
	C160.562943,103.485809 160.627502,102.701088 160.963806,101.762604 
	C161.174835,102.384232 161.114120,103.159622 160.775894,104.102768 
z"/>
<path fill="#332F2F" opacity="1.000000" stroke="none" 
	d="
M235.761276,128.538773 
	C236.419418,128.505829 237.140182,128.771881 237.935165,129.346497 
	C237.280884,129.382629 236.552399,129.110214 235.761276,128.538773 
z"/>
<path fill="#B6B5B5" opacity="1.000000" stroke="none" 
	d="
M63.446522,47.792934 
	C62.817585,47.527245 62.408112,47.086163 61.986137,46.331612 
	C62.537758,46.551277 63.101871,47.084408 63.446522,47.792934 
z"/>
<path fill="#4B4747" opacity="1.000000" stroke="none" 
	d="
M505.599091,86.936981 
	C505.455994,87.557800 505.009491,88.245941 504.218506,88.937508 
	C504.347900,88.295380 504.821808,87.649834 505.599091,86.936981 
z"/>
<path fill="#332F2F" opacity="1.000000" stroke="none" 
	d="
M252.278503,127.640930 
	C252.492691,127.112755 252.996124,126.583389 253.802811,126.046738 
	C253.593292,126.572884 253.080521,127.106308 252.278503,127.640930 
z"/>
<path fill="#332F2F" opacity="1.000000" stroke="none" 
	d="
M234.106857,126.296371 
	C234.692551,126.539062 235.271149,127.081299 235.795975,127.958939 
	C235.194717,127.728195 234.647247,127.162056 234.106857,126.296371 
z"/>
<path fill="#332F2F" opacity="1.000000" stroke="none" 
	d="
M182.587616,126.264053 
	C183.092133,126.567085 183.511429,127.146667 183.907776,128.022491 
	C183.424042,127.726021 182.963211,127.133308 182.587616,126.264053 
z"/>
<path fill="#332F2F" opacity="1.000000" stroke="none" 
	d="
M208.656204,94.967926 
	C208.637970,95.557312 208.336151,96.213104 207.751801,96.942581 
	C207.770370,96.355614 208.071503,95.694984 208.656204,94.967926 
z"/>
<path fill="#332F2F" opacity="1.000000" stroke="none" 
	d="
M227.294189,126.677864 
	C227.563522,126.158447 228.135742,125.624931 229.037628,125.112473 
	C228.777237,125.643600 228.187164,126.153687 227.294189,126.677864 
z"/>
<path fill="#605D5D" opacity="1.000000" stroke="none" 
	d="
M362.306824,122.192627 
	C362.848297,122.554810 363.336639,123.214806 363.681152,124.196770 
	C363.109436,123.842644 362.681580,123.166534 362.306824,122.192627 
z"/>
<path fill="#413D3D" opacity="1.000000" stroke="none" 
	d="
M348.235229,97.737961 
	C348.534424,97.220634 349.138458,96.655807 350.088684,96.131966 
	C349.803284,96.678780 349.171661,97.184616 348.235229,97.737961 
z"/>
<path fill="#413D3D" opacity="1.000000" stroke="none" 
	d="
M315.241089,113.009552 
	C315.206635,112.573936 315.336548,111.981331 315.720154,111.198563 
	C315.784363,111.623123 315.594940,112.237846 315.241089,113.009552 
z"/>
<path fill="#332F2F" opacity="1.000000" stroke="none" 
	d="
M239.915924,122.697144 
	C239.394257,122.477333 238.903122,121.951385 238.613007,121.248245 
	C239.191513,121.511047 239.568985,121.951035 239.915924,122.697144 
z"/>
<path fill="#4B4747" opacity="1.000000" stroke="none" 
	d="
M530.640015,120.441040 
	C530.657288,119.820320 530.895020,118.975075 531.492920,118.052185 
	C531.522217,118.721870 531.191345,119.469185 530.640015,120.441040 
z"/>
<path fill="#605D5D" opacity="1.000000" stroke="none" 
	d="
M387.267029,119.925110 
	C387.318634,119.436775 387.670197,118.932938 388.021759,118.429092 
	C388.291870,118.897942 388.561951,119.366798 388.723083,120.160599 
	C388.265106,120.293556 387.916046,120.101578 387.267029,119.925110 
z"/>
<path fill="#413D3D" opacity="1.000000" stroke="none" 
	d="
M329.176575,93.309128 
	C329.726501,93.645088 330.286835,94.303574 330.766357,95.329987 
	C330.186005,95.009163 329.686462,94.320404 329.176575,93.309128 
z"/>
<path fill="#413D3D" opacity="1.000000" stroke="none" 
	d="
M355.229889,94.428978 
	C355.429291,93.909172 355.900604,93.459282 356.636536,92.999985 
	C356.434692,93.493355 355.968231,93.996132 355.229889,94.428978 
z"/>
<path fill="#646060" opacity="1.000000" stroke="none" 
	d="
M406.225281,124.416916 
	C406.288727,124.325890 406.659515,124.287651 407.073303,124.469292 
	C406.921753,124.616013 406.727173,124.542862 406.225281,124.416916 
z"/>
<path fill="#302B2B" opacity="1.000000" stroke="none" 
	d="
M398.082397,129.276733 
	C398.272644,128.975128 398.562622,128.962646 399.279266,129.054459 
	C399.695892,129.359756 399.685883,129.560745 399.457947,129.970612 
	C398.887360,129.974945 398.534760,129.770401 398.082397,129.276733 
z"/>
<path fill="#F2F2F2" opacity="1.000000" stroke="none" 
	d="
M122.148682,93.816704 
	C123.029030,93.260017 123.598282,92.904716 124.215538,92.683250 
	C130.667572,90.368477 131.885513,91.303757 131.383545,98.041458 
	C131.014572,102.994225 130.849365,107.964806 130.373611,112.906296 
	C129.815094,118.707138 126.986237,121.382599 122.011032,121.179298 
	C117.675133,121.002121 113.749268,116.583946 113.856110,111.609283 
	C114.005211,104.667618 116.810951,98.836388 122.148682,93.816704 
z"/>
<path fill="#E4E3E3" opacity="1.000000" stroke="none" 
	d="
M458.643250,94.712051 
	C461.522369,92.850937 464.139771,91.253342 467.051910,89.475845 
	C469.626648,94.979462 467.293823,98.072281 463.504028,100.342285 
	C461.080292,101.794052 458.313690,102.673325 455.700775,103.809250 
	C456.384857,101.120399 457.056549,98.428246 457.770813,95.747437 
	C457.848328,95.456543 458.172028,95.231270 458.643250,94.712051 
z"/>
<path fill="#EFEFEE" opacity="1.000000" stroke="none" 
	d="
M387.305908,144.097977 
	C386.159698,149.113617 385.205658,154.183121 383.818970,159.131378 
	C382.058228,165.414658 377.128876,168.143661 372.288910,165.860703 
	C367.624115,163.660355 365.859589,157.904449 369.578003,154.374817 
	C374.878296,149.343658 380.979523,145.156326 386.940033,141.156677 
	C387.196259,142.502518 387.251068,143.300247 387.305908,144.097977 
z"/>
<path fill="#605D5D" opacity="1.000000" stroke="none" 
	d="
M387.610413,144.032227 
	C387.251068,143.300247 387.196259,142.502518 387.198181,141.306580 
	C387.474945,141.927734 387.694946,142.947098 387.610413,144.032227 
z"/>
<path fill="#F3F3F3" opacity="1.000000" stroke="none" 
	d="
M213.226791,99.086266 
	C215.274872,97.038773 217.100937,94.667000 219.449799,93.058815 
	C220.992874,92.002342 223.290634,92.048172 225.627579,91.514191 
	C225.829468,93.960495 225.962051,95.566986 226.177094,98.042336 
	C226.289551,104.277786 226.319565,109.644371 226.349579,115.010963 
	C224.473816,119.865807 220.998901,121.903358 215.237579,120.772957 
	C214.124268,120.288841 213.614349,120.007599 213.104431,119.726357 
	C212.114304,118.022232 211.124176,116.318108 210.095764,113.904556 
	C210.007401,111.795998 209.957306,110.396873 209.907211,108.997749 
	C210.127945,107.857483 210.348694,106.717224 210.841370,105.030327 
	C211.817810,102.684555 212.522308,100.885406 213.226791,99.086266 
z"/>
<path fill="#EDEDED" opacity="1.000000" stroke="none" 
	d="
M240.364243,81.012093 
	C240.270111,81.451729 240.175980,81.891357 240.067810,82.671967 
	C239.287491,86.276085 238.521240,89.539230 237.367737,92.933647 
	C236.403839,85.004761 235.827164,76.944595 235.159821,68.020584 
	C234.808243,64.733467 234.547363,62.310211 234.286469,59.886955 
	C235.620407,58.042442 236.954346,56.197933 238.812714,54.482193 
	C239.921494,54.625969 240.505875,54.640972 241.090240,54.655983 
	C241.672089,56.514603 242.253937,58.373226 242.667603,60.893600 
	C242.389435,63.039234 242.279419,64.523109 242.169418,66.006989 
	C241.710251,69.707809 241.251083,73.408623 240.615051,77.764763 
	C240.413544,79.284088 240.388901,80.148087 240.364243,81.012093 
z"/>
<path fill="#332F2F" opacity="1.000000" stroke="none" 
	d="
M226.715820,114.882660 
	C226.319565,109.644371 226.289551,104.277786 226.337845,98.448730 
	C226.944275,99.545097 227.927979,101.108673 227.911804,102.661842 
	C227.869812,106.695114 227.388245,110.723824 226.715820,114.882660 
z"/>
<path fill="#332F2F" opacity="1.000000" stroke="none" 
	d="
M233.955612,60.129639 
	C234.547363,62.310211 234.808243,64.733467 234.998917,67.579239 
	C231.318787,66.001297 233.317764,63.042217 233.955612,60.129639 
z"/>
<path fill="#332F2F" opacity="1.000000" stroke="none" 
	d="
M242.473267,66.009598 
	C242.279419,64.523109 242.389435,63.039234 242.729675,61.270447 
	C243.305496,62.395092 243.651108,63.804646 243.994385,65.603287 
	C243.587082,65.998985 243.182114,66.005592 242.473267,66.009598 
z"/>
<path fill="#332F2F" opacity="1.000000" stroke="none" 
	d="
M209.558167,109.068039 
	C209.957306,110.396873 210.007401,111.795998 209.938385,113.599579 
	C207.116882,112.695511 207.317734,111.022911 209.558167,109.068039 
z"/>
<path fill="#332F2F" opacity="1.000000" stroke="none" 
	d="
M212.836243,99.112564 
	C212.522308,100.885406 211.817810,102.684555 210.809082,104.680878 
	C211.151810,102.965004 211.798737,101.051933 212.836243,99.112564 
z"/>
<path fill="#332F2F" opacity="1.000000" stroke="none" 
	d="
M241.014984,54.382462 
	C240.505875,54.640972 239.921494,54.625969 239.137222,54.392601 
	C239.604797,54.152473 240.272247,54.130707 241.014984,54.382462 
z"/>
<path fill="#332F2F" opacity="1.000000" stroke="none" 
	d="
M213.093246,120.035858 
	C213.614349,120.007599 214.124268,120.288841 214.808350,120.810844 
	C214.349014,120.816193 213.715546,120.580780 213.093246,120.035858 
z"/>
<path fill="#332F2F" opacity="1.000000" stroke="none" 
	d="
M240.665833,80.938911 
	C240.388901,80.148087 240.413544,79.284088 240.671112,78.192368 
	C240.925156,78.931671 240.946289,79.898705 240.665833,80.938911 
z"/>
</svg>