<svg version="1.1" id="Layer_1" xmlns="http://www.w3.org/2000/svg" xmlns:xlink="http://www.w3.org/1999/xlink" x="0px" y="0px"
	 width="100%" viewBox="0 0 384 132" enable-background="new 0 0 384 132" xml:space="preserve">
<path fill="none" opacity="1.000000" stroke="#000000" stroke-linecap="round" stroke-linejoin="round" stroke-width="3.000000"
	d="
M153.000000,61.500000 
	C155.798248,54.088100 156.135971,46.239193 156.927475,38.492588 
	C157.185272,35.969448 156.579102,33.439564 152.999771,33.479675 
	C149.740860,33.516201 147.538315,35.592941 147.509750,39.000080 
	C147.441025,47.199474 147.929138,55.365406 148.966278,63.504295 
	C149.196167,65.308334 149.516312,67.364868 148.902924,68.962738 
	C147.081833,73.706718 150.179337,76.978798 152.109940,80.438652 
	C153.519485,82.964638 159.737274,82.641464 162.942932,79.932472 
	C164.934067,78.249832 166.688187,76.602180 169.500000,77.000000 
"/>
<path fill="none" opacity="1.000000" stroke="#000000" stroke-linecap="round" stroke-linejoin="round" stroke-width="5.000000"
	d="
M250.000000,89.000000 
	C243.627151,90.000259 235.431808,97.340652 233.883301,102.464737 
	C232.628754,106.616074 235.211685,108.958725 237.642792,110.226089 
	C239.418320,111.151680 242.656067,111.446434 245.059799,109.060234 
	C250.334595,103.823914 250.339584,96.978775 250.884689,90.490311 
	C251.777466,79.863617 249.307053,69.092926 252.000000,58.500000 
"/>
<path fill="none" opacity="1.000000" stroke="#000000" stroke-linecap="round" stroke-linejoin="round" stroke-width="9.000000"
	d="
M36.250000,33.000000 
	C35.854340,46.000671 36.106903,59.014339 35.087570,72.006874 
	C34.711708,76.797646 35.333332,81.666664 35.500000,86.500000 
"/>
<path fill="none" opacity="1.000000" stroke="#000000" stroke-linecap="round" stroke-linejoin="round" stroke-width="7.000000"
	d="
M277.000000,42.000000 
	C278.333740,53.343754 276.836823,64.669014 276.614532,75.997345 
	C276.560150,78.768036 277.590820,81.912865 275.500000,84.500000 
"/>
<path fill="none" opacity="1.000000" stroke="#000000" stroke-linecap="round" stroke-linejoin="round" stroke-width="8.000000"
	d="
M121.500000,83.500000 
	C118.855934,75.885742 119.631416,67.616676 116.854881,60.021675 
	C110.942413,60.995228 108.456192,65.727928 105.996841,70.498367 
	C104.788612,72.841980 103.984047,75.649117 100.500000,75.500000 
"/>
<path fill="none" opacity="1.000000" stroke="#000000" stroke-linecap="round" stroke-linejoin="round" stroke-width="5.000000"
	d="
M288.500000,70.000000 
	C293.141602,69.566559 297.493286,68.602341 300.528137,64.520927 
	C302.192108,62.283157 302.782257,59.850609 301.425446,57.543854 
	C299.762146,54.716061 297.206329,56.099751 295.006805,57.016350 
	C288.777252,59.612400 286.929962,64.349106 287.515015,72.998985 
	C287.799194,77.200272 289.235474,81.109634 293.538605,82.368011 
	C297.090759,83.406769 300.533234,82.086182 303.004028,79.003220 
	C304.406555,77.253204 306.123199,75.913651 308.491089,76.534012 
	C311.869507,77.419128 313.831635,76.076050 315.023499,73.009132 
	C315.370453,72.116325 315.995514,71.330597 316.500732,70.500458 
	C319.324371,65.861267 321.786285,60.875290 327.500000,59.000000 
"/>
<path fill="none" opacity="1.000000" stroke="#000000" stroke-linecap="round" stroke-linejoin="round" stroke-width="8.000000"
	d="
M277.500000,31.500000 
	C277.500000,31.666666 277.475098,31.837721 277.503571,31.999372 
	C279.088593,40.998421 279.089020,40.998344 270.500000,42.500004 
	C264.596313,43.532169 264.604095,43.532307 264.498169,49.499969 
	C264.338470,58.500092 264.097626,67.499519 264.034698,76.500244 
	C264.010254,80.002968 263.389404,83.311211 262.000000,86.500000 
"/>
<path fill="none" opacity="1.000000" stroke="#000000" stroke-linecap="round" stroke-linejoin="round" stroke-width="8.000000"
	d="
M233.500000,56.500000 
	C235.370331,60.886147 234.252472,65.496368 234.465698,70.001625 
	C234.619095,73.242485 234.442444,76.576187 236.047775,79.473526 
	C238.119202,83.212067 241.141403,83.428604 244.024246,80.524063 
	C245.981186,78.552353 246.463730,75.497749 249.000000,74.000000 
"/>
<path fill="none" opacity="1.000000" stroke="#000000" stroke-linecap="round" stroke-linejoin="round" stroke-width="2.000000"
	d="
M209.500000,49.500000 
	C206.500000,57.833336 203.570908,66.193237 200.463516,74.486328 
	C199.296265,77.601524 197.787720,80.654076 193.500000,80.000000 
"/>
<path fill="none" opacity="1.000000" stroke="#000000" stroke-linecap="round" stroke-linejoin="round" stroke-width="3.000000"
	d="
M54.500000,56.000000 
	C45.568905,60.151440 45.325916,69.888680 41.014629,77.008858 
	C40.245029,78.279869 39.666668,79.666672 39.000004,81.000000 
"/>
<path fill="none" opacity="1.000000" stroke="#000000" stroke-linecap="round" stroke-linejoin="round" stroke-width="6.000000"
	d="
M86.500000,59.000000 
	C79.006531,55.503998 72.801163,60.091778 70.520691,71.504135 
	C69.776825,75.226723 71.544571,77.910172 74.493904,80.008568 
	C77.327644,82.024712 79.851196,80.931465 82.524628,79.547577 
	C84.287636,78.634972 85.636192,77.341774 87.000000,76.000000 
"/>
<path fill="none" opacity="1.000000" stroke="#000000" stroke-linecap="round" stroke-linejoin="round" stroke-width="8.000000"
	d="
M170.750000,51.500000 
	C171.687302,59.510632 170.383026,67.496368 170.467285,75.500343 
	C170.506348,79.209175 170.644928,82.880768 171.500000,86.500000 
"/>
<path fill="none" opacity="1.000000" stroke="#000000" stroke-linecap="round" stroke-linejoin="round" stroke-width="6.000000"
	d="
M148.000000,58.000000 
	C137.288788,58.000000 132.004974,63.242332 132.026260,73.999947 
	C132.032364,77.082535 133.983429,79.184135 136.531570,80.435738 
	C138.955566,81.626373 141.687958,81.431305 143.959885,79.938934 
	C145.503159,78.925201 146.666656,77.333328 148.000000,75.999992 
"/>
<path fill="none" opacity="1.000000" stroke="#000000" stroke-linecap="round" stroke-linejoin="round" stroke-width="8.000000"
	d="
M55.000000,57.500000 
	C57.923744,62.804916 57.283344,68.874321 58.218899,74.546364 
	C58.780342,77.950256 62.134670,79.955109 61.500000,83.500000 
"/>
<path fill="none" opacity="1.000000" stroke="#000000" stroke-linecap="round" stroke-linejoin="round" stroke-width="2.000000"
	d="
M184.500000,61.000000 
	C180.093079,65.463203 178.863098,71.516914 176.513626,77.005836 
	C175.542099,79.275558 174.334839,81.126892 171.500000,81.000000 
"/>
<path fill="none" opacity="1.000000" stroke="#000000" stroke-linecap="round" stroke-linejoin="round" stroke-width="8.000000"
	d="
M328.000000,60.500000 
	C329.524658,62.795071 329.165161,65.563934 329.343597,68.011406 
	C329.733429,73.357178 331.160309,78.399078 332.500000,83.500000 
"/>
<path fill="none" opacity="1.000000" stroke="#000000" stroke-linecap="round" stroke-linejoin="round" stroke-width="7.000000"
	d="
M188.500000,58.000000 
	C190.166672,66.500000 191.833344,75.000000 193.500000,83.500000 
"/>
<path fill="none" opacity="1.000000" stroke="#000000" stroke-linecap="round" stroke-linejoin="round" stroke-width="2.000000"
	d="
M343.500000,65.500000 
	C341.755737,69.066742 341.109680,73.028389 339.115723,76.565239 
	C337.629272,79.201927 336.279541,81.206047 333.000000,81.000000 
"/>
<path fill="none" opacity="1.000000" stroke="#000000" stroke-linecap="round" stroke-linejoin="round" stroke-width="8.000000"
	d="
M228.500000,59.500000 
	C223.421661,59.675892 219.835541,62.557762 216.463303,65.963661 
	C215.518539,66.917839 215.468231,67.865784 215.493973,69.000137 
	C215.611267,74.168526 215.173782,79.354607 216.000000,84.500000 
"/>
<path fill="none" opacity="1.000000" stroke="#000000" stroke-linecap="round" stroke-linejoin="round" stroke-width="4.000000"
	d="
M296.000000,36.000000 
	C290.386261,37.423679 285.012299,40.012051 279.000000,39.500000 
"/>
<path fill="none" opacity="1.000000" stroke="#000000" stroke-linecap="round" stroke-linejoin="round" stroke-width="7.000000"
	d="
M88.000000,60.000000 
	C87.833336,63.666668 87.959892,67.376953 87.422638,70.988495 
	C86.809296,75.111519 89.636009,77.738556 91.014244,80.993973 
	C91.861687,82.995659 93.931519,82.237442 94.952576,81.868683 
	C97.503677,80.947372 99.672005,79.196968 99.484573,76.000908 
	C99.147446,70.252350 100.244942,64.644157 101.000000,59.000000 
"/>
<path fill="none" opacity="1.000000" stroke="#000000" stroke-linecap="round" stroke-linejoin="round" stroke-width="6.000000"
	d="
M311.250000,58.000000 
	C311.501129,64.288422 310.224731,70.391068 309.000000,76.500000 
"/>
<path fill="none" opacity="1.000000" stroke="#000000" stroke-linecap="round" stroke-linejoin="round" stroke-width="6.000000"
	d="
M264.000000,45.000000 
	C259.383270,44.449501 255.048920,46.440212 250.500000,46.500000 
"/>
<path fill="none" opacity="1.000000" stroke="#000000" stroke-linecap="round" stroke-linejoin="round" stroke-width="3.000000"
	d="
M208.000000,56.500000 
	C213.261566,57.481495 213.806305,62.435047 216.000000,66.000000 
"/>
<path fill="none" opacity="1.000000" stroke="#000000" stroke-linecap="round" stroke-linejoin="round" stroke-width="2.000000"
	d="
M263.000000,78.500000 
	C260.302399,78.104790 258.696014,79.856941 256.988647,81.488113 
	C255.560959,82.852104 254.459946,84.822128 252.000000,84.500000 
"/>
<path fill="none" opacity="1.000000" stroke="#000000" stroke-linecap="round" stroke-linejoin="round" stroke-width="2.000000"
	d="
M131.500000,75.000000 
	C129.936279,75.536766 128.613480,76.079453 127.915604,77.968826 
	C126.970985,80.526192 124.766953,81.533913 122.000000,81.000000 
"/>
<path fill="none" opacity="1.000000" stroke="#000000" stroke-linecap="round" stroke-linejoin="round" stroke-width="4.000000"
	d="
M69.500000,75.500000 
	C66.541763,76.708466 65.179733,80.093575 62.000000,81.000000 
"/>
</svg>